<?xml version="1.0" standalone="yes"?>
<svg xmlns="http://www.w3.org/2000/svg" width="500" height="500">
<path style="fill:#010101; stroke:none;" d="M0 0L0 233L1 233C1 143.789 67.4192 58.6974 146 22.6913C172.423 10.5841 202.679 1 232 1L210 0L163 0L0 0z"/>
<path style="fill:#fdfdfe; stroke:none;" d="M232 0L233 1L232 0z"/>
<path style="fill:#c6d0e5; stroke:none;" d="M233 0L233 1L237 1L233 0z"/>
<path style="fill:#8b9fcb; stroke:none;" d="M237 0L237 1L263 1L237 0z"/>
<path style="fill:#c6d0e5; stroke:none;" d="M263 0L263 1L267 1L263 0z"/>
<path style="fill:#fdfdfe; stroke:none;" d="M267 0L268 1L267 0z"/>
<path style="fill:#010101; stroke:none;" d="M268 0L268 1C297.356 1 327.545 10.5782 354 22.6913C431.999 58.4059 499 143.212 499 232L500 232L500 0L268 0z"/>
<path style="fill:#fdfdfe; stroke:none;" d="M220 1L221 2L220 1z"/>
<path style="fill:#c6d0e5; stroke:none;" d="M221 1L221 2L224 2L221 1z"/>
<path style="fill:#8b9fcb; stroke:none;" d="M224 1L224 2L228 2L224 1z"/>
<path style="fill:#3b5da9; stroke:none;" d="M228 1.42438C185.296 7.03415 144.755 18.6215 109 43.7207C-3.65958 122.805 -34.162 282.018 46.5787 395C61.3778 415.709 79.4702 434.723 100 449.846C125.059 468.305 152.991 482.234 183 490.576C214.696 499.386 248.438 501.661 281 497.715C316.83 493.372 351.258 481.023 382 462.189C404.594 448.347 424.989 430.36 441.919 410C533.511 299.851 511.683 129.964 395 46.5787C370.657 29.1823 342.999 16.0865 314 8.62964C286.858 1.65048 255.989 -2.25235 228 1.42438z"/>
<path style="fill:#8b9fcb; stroke:none;" d="M272 1L272 2L276 2L272 1z"/>
<path style="fill:#c6d0e5; stroke:none;" d="M276 1L276 2L279 2L276 1z"/>
<path style="fill:#fdfdfe; stroke:none;" d="M279 1L280 2L279 1M213 2L214 3L213 2z"/>
<path style="fill:#c6d0e5; stroke:none;" d="M214.667 2.33334L215.333 2.66666L214.667 2.33334z"/>
<path style="fill:#8b9fcb; stroke:none;" d="M216.667 2.33334L217.333 2.66666L216.667 2.33334M282.667 2.33334L283.333 2.66666L282.667 2.33334z"/>
<path style="fill:#c6d0e5; stroke:none;" d="M284.667 2.33334L285.333 2.66666L284.667 2.33334z"/>
<path style="fill:#fdfdfe; stroke:none;" d="M286 2L287 3L286 2M206 3L207 4L206 3z"/>
<path style="fill:#c6d0e5; stroke:none;" d="M207.667 3.33334L208.333 3.66666L207.667 3.33334z"/>
<path style="fill:#8b9fcb; stroke:none;" d="M209.667 3.33334L210.333 3.66666L209.667 3.33334M289.667 3.33334L290.333 3.66666L289.667 3.33334z"/>
<path style="fill:#c6d0e5; stroke:none;" d="M291.667 3.33334L292.333 3.66666L291.667 3.33334z"/>
<path style="fill:#fdfdfe; stroke:none;" d="M293 3L294 4L293 3z"/>
<path style="fill:#c6d0e5; stroke:none;" d="M202 4L203 5L202 4z"/>
<path style="fill:#8b9fcb; stroke:none;" d="M203.667 4.33334L204.333 4.66666L203.667 4.33334M295.667 4.33334L296.333 4.66666L295.667 4.33334z"/>
<path style="fill:#c6d0e5; stroke:none;" d="M297 4L298 5L297 4z"/>
<path style="fill:#fdfdfe; stroke:none;" d="M298 4L299 5L298 4M196 5L197 6L196 5z"/>
<path style="fill:#c6d0e5; stroke:none;" d="M197 5L198 6L197 5z"/>
<path style="fill:#8b9fcb; stroke:none;" d="M198.667 5.33334L199.333 5.66666L198.667 5.33334M300.667 5.33334L301.333 5.66666L300.667 5.33334z"/>
<path style="fill:#c6d0e5; stroke:none;" d="M302 5L303 6L302 5z"/>
<path style="fill:#fdfdfe; stroke:none;" d="M303 5L304 6L303 5z"/>
<path style="fill:#c6d0e5; stroke:none;" d="M192.667 6.33334L193.333 6.66666L192.667 6.33334z"/>
<path style="fill:#8b9fcb; stroke:none;" d="M194 6L195 7L194 6M305.667 6.33334L306.333 6.66666L305.667 6.33334z"/>
<path style="fill:#c6d0e5; stroke:none;" d="M307 6L308 7L307 6M189 7L190 8L189 7z"/>
<path style="fill:#8b9fcb; stroke:none;" d="M190 7L191 8L190 7M309 7L310 8L309 7z"/>
<path style="fill:#c6d0e5; stroke:none;" d="M310 7L311 8L310 7z"/>
<path style="fill:#fdfdfe; stroke:none;" d="M184 8L185 9L184 8z"/>
<path style="fill:#c6d0e5; stroke:none;" d="M185 8L186 9L185 8z"/>
<path style="fill:#8b9fcb; stroke:none;" d="M186 8L187 9L186 8M313 8L314 9L313 8z"/>
<path style="fill:#c6d0e5; stroke:none;" d="M314 8L315 9L314 8z"/>
<path style="fill:#fdfdfe; stroke:none;" d="M315 8L316 9L315 8z"/>
<path style="fill:#c6d0e5; stroke:none;" d="M181 9L182 10L181 9z"/>
<path style="fill:#8b9fcb; stroke:none;" d="M182 9L183 10L182 9M317 9L318 10L317 9z"/>
<path style="fill:#c6d0e5; stroke:none;" d="M318 9L319 10L318 9z"/>
<path style="fill:#fdfdfe; stroke:none;" d="M177 10L178 11L177 10z"/>
<path style="fill:#c6d0e5; stroke:none;" d="M178 10L179 11L178 10z"/>
<path style="fill:#8b9fcb; stroke:none;" d="M179 10L180 11L179 10M320.667 10.3333L321.333 10.6667L320.667 10.3333z"/>
<path style="fill:#c6d0e5; stroke:none;" d="M322 10L323 11L322 10z"/>
<path style="fill:#fdfdfe; stroke:none;" d="M174 11L175 12L174 11z"/>
<path style="fill:#8b9fcb; stroke:none;" d="M175 11L176 12L175 11M324 11L325 12L324 11z"/>
<path style="fill:#c6d0e5; stroke:none;" d="M325 11L326 12L325 11M171 12L172 13L171 12z"/>
<path style="fill:#8b9fcb; stroke:none;" d="M172 12L173 13L172 12M327 12L328 13L327 12z"/>
<path style="fill:#c6d0e5; stroke:none;" d="M328 12L329 13L328 12M168 13L169 14L168 13z"/>
<path style="fill:#8b9fcb; stroke:none;" d="M169 13L170 14L169 13M330 13L331 14L330 13z"/>
<path style="fill:#c6d0e5; stroke:none;" d="M331 13L332 14L331 13M165 14L166 15L165 14z"/>
<path style="fill:#8b9fcb; stroke:none;" d="M166 14L167 15L166 14M333 14L334 15L333 14z"/>
<path style="fill:#c6d0e5; stroke:none;" d="M334 14L335 15L334 14z"/>
<path style="fill:#fdfdfe; stroke:none;" d="M162 15L163 16L162 15z"/>
<path style="fill:#8b9fcb; stroke:none;" d="M163 15L164 16L163 15M336 15L337 16L336 15z"/>
<path style="fill:#fdfdfe; stroke:none;" d="M337 15L338 16L337 15z"/>
<path style="fill:#c6d0e5; stroke:none;" d="M160 16L161 17L160 16z"/>
<path style="fill:#8b9fcb; stroke:none;" d="M161 16L162 17L161 16M338 16L339 17L338 16z"/>
<path style="fill:#c6d0e5; stroke:none;" d="M339 16L340 17L339 16z"/>
<path style="fill:#fdfdfe; stroke:none;" d="M157 17L158 18L157 17z"/>
<path style="fill:#8b9fcb; stroke:none;" d="M158 17L159 18L158 17M341 17L342 18L341 17z"/>
<path style="fill:#fdfdfe; stroke:none;" d="M342 17L343 18L342 17z"/>
<path style="fill:#c6d0e5; stroke:none;" d="M155 18L156 19L155 18z"/>
<path style="fill:#8b9fcb; stroke:none;" d="M156 18L157 19L156 18M343 18L344 19L343 18z"/>
<path style="fill:#c6d0e5; stroke:none;" d="M344 18L345 19L344 18z"/>
<path style="fill:#fdfdfe; stroke:none;" d="M152 19L153 20L152 19z"/>
<path style="fill:#8b9fcb; stroke:none;" d="M153 19L154 20L153 19M346 19L347 20L346 19z"/>
<path style="fill:#fdfdfe; stroke:none;" d="M347 19L348 20L347 19z"/>
<path style="fill:#c6d0e5; stroke:none;" d="M150 20L151 21L150 20z"/>
<path style="fill:#8b9fcb; stroke:none;" d="M151 20L152 21L151 20M348 20L349 21L348 20z"/>
<path style="fill:#c6d0e5; stroke:none;" d="M349 20L350 21L349 20M148 21L149 22L148 21z"/>
<path style="fill:#8b9fcb; stroke:none;" d="M149 21L150 22L149 21M350 21L351 22L350 21z"/>
<path style="fill:#c6d0e5; stroke:none;" d="M351 21L352 22L351 21z"/>
<path style="fill:#8b9fcb; stroke:none;" d="M146 22L147 23L146 22M353 22L354 23L353 22z"/>
<path style="fill:#c6d0e5; stroke:none;" d="M144 23L145 24L144 23z"/>
<path style="fill:#8b9fcb; stroke:none;" d="M355 23L356 24L355 23z"/>
<path style="fill:#fdfdfe; stroke:none;" d="M141 24L142 25L141 24z"/>
<path style="fill:#8b9fcb; stroke:none;" d="M142 24L143 25L142 24M357 24L358 25L357 24z"/>
<path style="fill:#fdfdfe; stroke:none;" d="M358 24L359 25L358 24M139 25L140 26L139 25z"/>
<path style="fill:#8b9fcb; stroke:none;" d="M140 25L141 26L140 25M359 25L360 26L359 25z"/>
<path style="fill:#fdfdfe; stroke:none;" d="M360 25L361 26L360 25M137 26L138 27L137 26z"/>
<path style="fill:#8b9fcb; stroke:none;" d="M138 26L139 27L138 26M361 26L362 27L361 26z"/>
<path style="fill:#c6d0e5; stroke:none;" d="M362 26L363 27L362 26z"/>
<path style="fill:#8b9fcb; stroke:none;" d="M136 27L137 28L136 27M363 27L364 28L363 27z"/>
<path style="fill:#fdfdfe; stroke:none;" d="M364 27L365 28L364 27M133 28L134 29L133 28z"/>
<path style="fill:#8b9fcb; stroke:none;" d="M134 28L135 29L134 28M365 28L366 29L365 28z"/>
<path style="fill:#fdfdfe; stroke:none;" d="M366 28L367 29L366 28z"/>
<path style="fill:#8b9fcb; stroke:none;" d="M132 29L133 30L132 29M367 29L368 30L367 29z"/>
<path style="fill:#fdfdfe; stroke:none;" d="M368 29L369 30L368 29z"/>
<path style="fill:#8b9fcb; stroke:none;" d="M130 30L131 31L130 30M369 30L370 31L369 30z"/>
<path style="fill:#c6d0e5; stroke:none;" d="M128 31L129 32L128 31M371 31L372 32L371 31z"/>
<path style="fill:#fdfdfe; stroke:none;" d="M126 32L127 33L126 32z"/>
<path style="fill:#8b9fcb; stroke:none;" d="M127 32L128 33L127 32M372 32L373 33L372 32z"/>
<path style="fill:#fdfdfe; stroke:none;" d="M373 32L374 33L373 32M124 33L125 34L124 33z"/>
<path style="fill:#8b9fcb; stroke:none;" d="M125 33L126 34L125 33M374 33L375 34L374 33z"/>
<path style="fill:#fdfdfe; stroke:none;" d="M375 33L376 34L375 33z"/>
<path style="fill:#8b9fcb; stroke:none;" d="M123 34L124 35L123 34M376 34L377 35L376 34z"/>
<path style="fill:#c6d0e5; stroke:none;" d="M121 35L122 36L121 35M378 35L379 36L378 35z"/>
<path style="fill:#fdfdfe; stroke:none;" d="M119 36L120 37L119 36z"/>
<path style="fill:#8b9fcb; stroke:none;" d="M120 36L121 37L120 36M379 36L380 37L379 36z"/>
<path style="fill:#fdfdfe; stroke:none;" d="M380 36L381 37L380 36z"/>
<path style="fill:#8b9fcb; stroke:none;" d="M118 37L119 38L118 37M381 37L382 38L381 37z"/>
<path style="fill:#c6d0e5; stroke:none;" d="M116 38L117 39L116 38M383 38L384 39L383 38z"/>
<path style="fill:#8b9fcb; stroke:none;" d="M115 39L116 40L115 39M384 39L385 40L384 39z"/>
<path style="fill:#c6d0e5; stroke:none;" d="M113 40L114 41L113 40M386 40L387 41L386 40z"/>
<path style="fill:#8b9fcb; stroke:none;" d="M112 41L113 42L112 41M387 41L388 42L387 41z"/>
<path style="fill:#c6d0e5; stroke:none;" d="M110 42L111 43L110 42M389 42L390 43L389 42z"/>
<path style="fill:#8b9fcb; stroke:none;" d="M109 43L110 44L109 43M390 43L391 44L390 43z"/>
<path style="fill:#c6d0e5; stroke:none;" d="M107 44L108 45L107 44M392 44L393 45L392 44z"/>
<path style="fill:#8b9fcb; stroke:none;" d="M106 45L107 46L106 45M393 45L394 46L393 45z"/>
<path style="fill:#fdfdfe; stroke:none;" d="M104 46L105 47L104 46z"/>
<path style="fill:#8b9fcb; stroke:none;" d="M105 46L106 47L105 46M394 46L395 47L394 46z"/>
<path style="fill:#fdfdfe; stroke:none;" d="M395 46L396 47L395 46z"/>
<path style="fill:#c6d0e5; stroke:none;" d="M103 47L104 48L103 47M396 47L397 48L396 47z"/>
<path style="fill:#8b9fcb; stroke:none;" d="M102 48L103 49L102 48M397 48L398 49L397 48z"/>
<path style="fill:#c6d0e5; stroke:none;" d="M100 49L101 50L100 49z"/>
<path style="fill:#8b9fcb; stroke:none;" d="M101 49L102 50L101 49z"/>
<path style="fill:#c6d0e5; stroke:none;" d="M399 49L400 50L399 49M99 50L100 51L99 50z"/>
<path style="fill:#8b9fcb; stroke:none;" d="M400 50L401 51L400 50M98 51L99 52L98 51M401 51L402 52L401 51z"/>
<path style="fill:#fdfdfe; stroke:none;" d="M402 51L403 52L402 51M96 52L97 53L96 52M403 52L404 53L403 52z"/>
<path style="fill:#c6d0e5; stroke:none;" d="M95 53L96 54L95 53M404 53L405 54L404 53z"/>
<path style="fill:#8b9fcb; stroke:none;" d="M94 54L95 55L94 54M405 54L406 55L405 54M93 55L94 56L93 55M406 55L407 56L406 55z"/>
<path style="fill:#fdfdfe; stroke:none;" d="M91 56L92 57L91 56z"/>
<path style="fill:#c6d0e5; stroke:none;" d="M408 56L409 57L408 56M90 57L91 58L90 57M409 57L410 58L409 57M89 58L90 59L89 58z"/>
<path style="fill:#8b9fcb; stroke:none;" d="M410 58L411 59L410 58M88 59L89 60L88 59M411 59L412 60L411 59M87 60L88 61L87 60M412 60L413 61L412 60z"/>
<path style="fill:#fdfdfe; stroke:none;" d="M413 60L414 61L413 60M85 61L86 62L85 61M414 61L415 62L414 61M84 62L85 63L84 62z"/>
<path style="fill:#c6d0e5; stroke:none;" d="M415 62L416 63L415 62M83 63L84 64L83 63M416 63L417 64L416 63M82 64L83 65L82 64M417 64L418 65L417 64M81 65L82 66L81 65z"/>
<path style="fill:#8b9fcb; stroke:none;" d="M418 65L419 66L418 65M80 66L81 67L80 66M419 66L420 67L419 66M79 67L80 68L79 67M420 67L421 68L420 67M78 68L79 69L78 68M421 68L422 69L421 68M77 69L78 70L77 69M422 69L423 70L422 69M76 70L77 71L76 70M423 70L424 71L423 70M75 71L76 72L75 71M424 71L425 72L424 71M74 72L75 73L74 72M425 72L426 73L425 72M73 73L74 74L73 73M426 73L427 74L426 73M72 74L73 75L72 74M427 74L428 75L427 74M71 75L72 76L71 75M428 75L429 76L428 75M70 76L71 77L70 76M429 76L430 77L429 76M69 77L70 78L69 77M430 77L431 78L430 77M68 78L69 79L68 78M431 78L432 79L431 78M67 79L68 80L67 79M432 79L433 80L432 79M66 80L67 81L66 80M433 80L434 81L433 80z"/>
<path style="fill:#c6d0e5; stroke:none;" d="M65 81L66 82L65 81z"/>
<path style="fill:#8b9fcb; stroke:none;" d="M434 81L435 82L434 81z"/>
<path style="fill:#c6d0e5; stroke:none;" d="M64 82L65 83L64 82M435 82L436 83L435 82M63 83L64 84L63 83M436 83L437 84L436 83z"/>
<path style="fill:#fdfdfe; stroke:none;" d="M62 84L63 85L62 84z"/>
<path style="fill:#c6d0e5; stroke:none;" d="M437 84L438 85L437 84z"/>
<path style="fill:#fdfdfe; stroke:none;" d="M438 85L439 86L438 85M439 86L440 87L439 86z"/>
<path style="fill:#8b9fcb; stroke:none;" d="M60 87L61 88L60 87M439 87L440 88L439 87M59 88L60 89L59 88M440 88L441 89L440 88z"/>
<path style="fill:#c6d0e5; stroke:none;" d="M58 89L59 90L58 89z"/>
<path style="fill:#8b9fcb; stroke:none;" d="M441 89L442 90L441 89z"/>
<path style="fill:#c6d0e5; stroke:none;" d="M57 90L58 91L57 90M442 90L443 91L442 90z"/>
<path style="fill:#fdfdfe; stroke:none;" d="M56 91L57 92L56 91z"/>
<path style="fill:#c6d0e5; stroke:none;" d="M443 91L444 92L443 91z"/>
<path style="fill:#8b9fcb; stroke:none;" d="M55 93L56 94L55 93M444 93L445 94L444 93M54 94L55 95L54 94M445 94L446 95L445 94z"/>
<path style="fill:#c6d0e5; stroke:none;" d="M53 95L54 96L53 95M446 95L447 96L446 95z"/>
<path style="fill:#fdfdfe; stroke:none;" d="M52 96L53 97L52 96z"/>
<path style="fill:#c6d0e5; stroke:none;" d="M447 96L448 97L447 96z"/>
<path style="fill:#8b9fcb; stroke:none;" d="M51 98L52 99L51 98M448 98L449 99L448 98z"/>
<path style="fill:#c6d0e5; stroke:none;" d="M50 99L51 100L50 99z"/>
<path style="fill:#8b9fcb; stroke:none;" d="M449 99L450 100L449 99z"/>
<path style="fill:#c6d0e5; stroke:none;" d="M49 100L50 101L49 100M450 100L451 101L450 100z"/>
<path style="fill:#8b9fcb; stroke:none;" d="M49 101L50 102L49 101M48 102L49 103L48 102M451 102L452 103L451 102z"/>
<path style="fill:#c6d0e5; stroke:none;" d="M47 103L48 104L47 103M452 103L453 104L452 103z"/>
<path style="fill:#fdfdfe; stroke:none;" d="M46 104L47 105L46 104M453 104L454 105L453 104z"/>
<path style="fill:#8b9fcb; stroke:none;" d="M46 105L47 106L46 105M45 106L46 107L45 106M454 106L455 107L454 106z"/>
<path style="fill:#c6d0e5; stroke:none;" d="M44 107L45 108L44 107M455 107L456 108L455 107z"/>
<path style="fill:#8b9fcb; stroke:none;" d="M43 109L44 110L43 109M456 109L457 110L456 109z"/>
<path style="fill:#c6d0e5; stroke:none;" d="M42 110L43 111L42 110M457 110L458 111L457 110z"/>
<path style="fill:#8b9fcb; stroke:none;" d="M41 112L42 113L41 112M458 112L459 113L458 112z"/>
<path style="fill:#c6d0e5; stroke:none;" d="M40 113L41 114L40 113M459 113L460 114L459 113z"/>
<path style="fill:#8b9fcb; stroke:none;" d="M39 115L40 116L39 115M460 115L461 116L460 115z"/>
<path style="fill:#c6d0e5; stroke:none;" d="M38 116L39 117L38 116M461 116L462 117L461 116z"/>
<path style="fill:#8b9fcb; stroke:none;" d="M37 118L38 119L37 118M462 118L463 119L462 118z"/>
<path style="fill:#fdfdfe; stroke:none;" d="M36 119L37 120L36 119M463 119L464 120L463 119z"/>
<path style="fill:#8b9fcb; stroke:none;" d="M36 120L37 121L36 120M463 120L464 121L463 120z"/>
<path style="fill:#c6d0e5; stroke:none;" d="M35 121L36 122L35 121M464 121L465 122L464 121z"/>
<path style="fill:#8b9fcb; stroke:none;" d="M34 123L35 124L34 123M465 123L466 124L465 123z"/>
<path style="fill:#fdfdfe; stroke:none;" d="M33 124L34 125L33 124z"/>
<path style="fill:#c6d0e5; stroke:none;" d="M466 124L467 125L466 124z"/>
<path style="fill:#8b9fcb; stroke:none;" d="M33 125L34 126L33 125M466 125L467 126L466 125z"/>
<path style="fill:#fdfdfe; stroke:none;" d="M32 126L33 127L32 126z"/>
<path style="fill:#c6d0e5; stroke:none;" d="M467 126L468 127L467 126z"/>
<path style="fill:#8b9fcb; stroke:none;" d="M32 127L33 128L32 127M467 127L468 128L467 127z"/>
<path style="fill:#c6d0e5; stroke:none;" d="M31 128L32 129L31 128M468 128L469 129L468 128z"/>
<path style="fill:#8b9fcb; stroke:none;" d="M30 130L31 131L30 130M469 130L470 131L469 130M29 132L30 133L29 132M470 132L471 133L470 132z"/>
<path style="fill:#fdfdfe; stroke:none;" d="M28 133L29 134L28 133M471 133L472 134L471 133z"/>
<path style="fill:#8b9fcb; stroke:none;" d="M28 134L29 135L28 134M471 134L472 135L471 134z"/>
<path style="fill:#fdfdfe; stroke:none;" d="M472 135L473 136L472 135z"/>
<path style="fill:#8b9fcb; stroke:none;" d="M27 136L28 137L27 136M472 136L473 137L472 136z"/>
<path style="fill:#fdfdfe; stroke:none;" d="M26 137L27 138L26 137z"/>
<path style="fill:#c6d0e5; stroke:none;" d="M473 137L474 138L473 137z"/>
<path style="fill:#8b9fcb; stroke:none;" d="M26 138L27 139L26 138M473 138L474 139L473 138z"/>
<path style="fill:#fdfdfe; stroke:none;" d="M25 139L26 140L25 139M474 139L475 140L474 139z"/>
<path style="fill:#8b9fcb; stroke:none;" d="M25 140L26 141L25 140M474 140L475 141L474 140z"/>
<path style="fill:#fdfdfe; stroke:none;" d="M24 141L25 142L24 141M475 141L476 142L475 141z"/>
<path style="fill:#8b9fcb; stroke:none;" d="M24 142L25 143L24 142M475 142L476 143L475 142z"/>
<path style="fill:#c6d0e5; stroke:none;" d="M23 144L24 145L23 144z"/>
<path style="fill:#8b9fcb; stroke:none;" d="M476 144L477 145L476 144M22 146L23 147L22 146M477 146L478 147L477 146z"/>
<path style="fill:#c6d0e5; stroke:none;" d="M21 148L22 149L21 148M478 148L479 149L478 148z"/>
<path style="fill:#8b9fcb; stroke:none;" d="M21 149L22 150L21 149M261.667 149.333L262.333 149.667L261.667 149.333M478 149L479 150L478 149z"/>
<path style="fill:#c6d0e5; stroke:none;" d="M20 150L21 151L20 150z"/>
<path style="fill:#fdfdfe; stroke:none;" d="M260 150L260 251C260 258.74 261.064 267.35 259.852 274.995C259.387 277.925 256.79 281.845 253.317 279.914C250.417 278.301 251.006 273.753 251 271L251 247C251 238.766 252.864 227.817 249.968 220.001C246.917 211.766 231.861 201.328 224 198C226.031 189.116 227.877 179.788 221.468 172.094C207.946 155.864 184.136 168.944 185.04 188C185.601 199.82 197.436 208.661 209 206.532C212.668 205.856 217.853 201.63 221.424 202.583C227.706 204.258 238.417 214.327 242.721 219.174C247.037 224.033 246 230.977 246 237C246 250.253 245.215 263.775 246.044 277C246.471 283.819 253.436 289.241 259.945 285.138C267.822 280.174 265 265.908 265 258L265 180C265 172.986 268.693 151.509 260 150z"/>
<path style="fill:#8b9fcb; stroke:none;" d="M264 150L265 151L264 150z"/>
<path style="fill:#c6d0e5; stroke:none;" d="M479 150L480 151L479 150z"/>
<path style="fill:#8b9fcb; stroke:none;" d="M20 151L21 152L20 151M259 151L260 152L259 151z"/>
<path style="fill:#c6d0e5; stroke:none;" d="M264 151L265 152L264 151z"/>
<path style="fill:#8b9fcb; stroke:none;" d="M479 151L480 152L479 151z"/>
<path style="fill:#fdfdfe; stroke:none;" d="M19 152L20 153L19 152z"/>
<path style="fill:#c6d0e5; stroke:none;" d="M259 152L259 279L260 279L260 190C260 179.104 263.208 162.027 259 152M480 152L481 153L480 152z"/>
<path style="fill:#8b9fcb; stroke:none;" d="M19 153L20 154L19 153M480 153L481 154L480 153z"/>
<path style="fill:#c6d0e5; stroke:none;" d="M18 155L19 156L18 155M481 155L482 156L481 155z"/>
<path style="fill:#8b9fcb; stroke:none;" d="M18 156L19 157L18 156M481 156L482 157L481 156z"/>
<path style="fill:#fdfdfe; stroke:none;" d="M17 157L18 158L17 157z"/>
<path style="fill:#c6d0e5; stroke:none;" d="M482 157L483 158L482 157z"/>
<path style="fill:#8b9fcb; stroke:none;" d="M17 158L18 159L17 158M482 158L483 159L482 158z"/>
<path style="fill:#c6d0e5; stroke:none;" d="M16 160L17 161L16 160M483 160L484 161L483 160z"/>
<path style="fill:#8b9fcb; stroke:none;" d="M16 161L17 162L16 161M483 161L484 162L483 161z"/>
<path style="fill:#fdfdfe; stroke:none;" d="M484 162L485 163L484 162z"/>
<path style="fill:#8b9fcb; stroke:none;" d="M15 163L16 164L15 163M484 163L485 164L484 163M202 164L202 165L209 165L202 164z"/>
<path style="fill:#c6d0e5; stroke:none;" d="M14 165L15 166L14 165z"/>
<path style="fill:#8b9fcb; stroke:none;" d="M199 165L200 166L199 165z"/>
<path style="fill:#c6d0e5; stroke:none;" d="M200 165L201 166L200 165M210 165L211 166L210 165z"/>
<path style="fill:#8b9fcb; stroke:none;" d="M211 165L212 166L211 165z"/>
<path style="fill:#c6d0e5; stroke:none;" d="M485 165L486 166L485 165z"/>
<path style="fill:#8b9fcb; stroke:none;" d="M14 166L15 167L14 166M196 166L197 167L196 166z"/>
<path style="fill:#c6d0e5; stroke:none;" d="M197 166L198 167L197 166M213 166L214 167L213 166z"/>
<path style="fill:#8b9fcb; stroke:none;" d="M214 166L215 167L214 166M485 166L486 167L485 166M194 167L195 168L194 167M216 167L217 168L216 167z"/>
<path style="fill:#c6d0e5; stroke:none;" d="M13 168L14 169L13 168M193 168L194 169L193 168M217 168L218 169L217 168M486 168L487 169L486 168z"/>
<path style="fill:#8b9fcb; stroke:none;" d="M13 169L14 170L13 169M219 169L220 170L219 169M486 169L487 170L486 169M190 170L191 171L190 170z"/>
<path style="fill:#c6d0e5; stroke:none;" d="M201 170L202 171L201 170z"/>
<path style="fill:#8b9fcb; stroke:none;" d="M202 170L202 171L209 171L202 170z"/>
<path style="fill:#c6d0e5; stroke:none;" d="M209 170L210 171L209 170z"/>
<path style="fill:#8b9fcb; stroke:none;" d="M220 170L221 171L220 170z"/>
<path style="fill:#c6d0e5; stroke:none;" d="M12 171L13 172L12 171z"/>
<path style="fill:#8b9fcb; stroke:none;" d="M189 171L190 172L189 171M199 171L200 172L199 171z"/>
<path style="fill:#3b5da9; stroke:none;" d="M215 198L215 197C213.722 195.894 199.06 184.399 206.117 184.192C210.611 184.061 215.593 190.514 220 192C222.875 176.503 203.983 160.822 192.995 177.093C182.933 191.992 201.123 206.501 215 198z"/>
<path style="fill:#8b9fcb; stroke:none;" d="M211 171L212 172L211 171M221 171L222 172L221 171z"/>
<path style="fill:#c6d0e5; stroke:none;" d="M487 171L488 172L487 171z"/>
<path style="fill:#8b9fcb; stroke:none;" d="M12 172L13 173L12 172z"/>
<path style="fill:#c6d0e5; stroke:none;" d="M189 172L190 173L189 172M197 172L198 173L197 172z"/>
<path style="fill:#8b9fcb; stroke:none;" d="M213 172L214 173L213 172M487 172L488 173L487 172z"/>
<path style="fill:#c6d0e5; stroke:none;" d="M188 173L189 174L188 173z"/>
<path style="fill:#8b9fcb; stroke:none;" d="M196 173L197 174L196 173M214 173L215 174L214 173z"/>
<path style="fill:#c6d0e5; stroke:none;" d="M215 173L216 174L215 173M222 173L223 174L222 173z"/>
<path style="fill:#fdfdfe; stroke:none;" d="M11 174L12 175L11 174z"/>
<path style="fill:#8b9fcb; stroke:none;" d="M187 174L188 175L187 174z"/>
<path style="fill:#c6d0e5; stroke:none;" d="M194 174L195 175L194 174M216 174L217 175L216 174z"/>
<path style="fill:#8b9fcb; stroke:none;" d="M223 174L224 175L223 174z"/>
<path style="fill:#c6d0e5; stroke:none;" d="M488 174L489 175L488 174z"/>
<path style="fill:#8b9fcb; stroke:none;" d="M11 175L12 176L11 175z"/>
<path style="fill:#c6d0e5; stroke:none;" d="M193 175L194 176L193 175M217 175L218 176L217 175z"/>
<path style="fill:#8b9fcb; stroke:none;" d="M488 175L489 176L488 175z"/>
<path style="fill:#c6d0e5; stroke:none;" d="M186 176L187 177L186 176M224 176L225 177L224 176z"/>
<path style="fill:#fdfdfe; stroke:none;" d="M10 177L11 178L10 177z"/>
<path style="fill:#8b9fcb; stroke:none;" d="M192 177L193 178L192 177M218 177L219 178L218 177z"/>
<path style="fill:#c6d0e5; stroke:none;" d="M489 177L490 178L489 177M10 178L11 179L10 178z"/>
<path style="fill:#8b9fcb; stroke:none;" d="M185 178L186 179L185 178z"/>
<path style="fill:#c6d0e5; stroke:none;" d="M191 178L192 179L191 178M219 178L220 179L219 178z"/>
<path style="fill:#8b9fcb; stroke:none;" d="M225 178L226 179L225 178M489.333 178.667L489.667 179.333L489.333 178.667M10 179L11 180L10 179z"/>
<path style="fill:#c6d0e5; stroke:none;" d="M185 179L186 180L185 179z"/>
<path style="fill:#8b9fcb; stroke:none;" d="M191 179L192 180L191 179M219 179L220 180L219 179z"/>
<path style="fill:#c6d0e5; stroke:none;" d="M225 179L226 180L225 179M220 180L221 181L220 180M9 181L10 182L9 181z"/>
<path style="fill:#8b9fcb; stroke:none;" d="M184.333 181.667L184.667 182.333L184.333 181.667z"/>
<path style="fill:#c6d0e5; stroke:none;" d="M190 181L191 182L190 181z"/>
<path style="fill:#8b9fcb; stroke:none;" d="M220 181L221 182L220 181M226.333 181.667L226.667 182.333L226.333 181.667z"/>
<path style="fill:#c6d0e5; stroke:none;" d="M490 181L491 182L490 181z"/>
<path style="fill:#8b9fcb; stroke:none;" d="M9 182L10 183L9 182M190 182L191 183L190 182M490 182L491 183L490 182z"/>
<path style="fill:#c6d0e5; stroke:none;" d="M184 183L184 189L185 189L184 183M204 183L205 184L204 183M206 183L207 184L206 183z"/>
<path style="fill:#8b9fcb; stroke:none;" d="M207 183L208 184L207 183z"/>
<path style="fill:#c6d0e5; stroke:none;" d="M226 183L226 189L227 189L226 183z"/>
<path style="fill:#fdfdfe; stroke:none;" d="M8 184L9 185L8 184z"/>
<path style="fill:#8b9fcb; stroke:none;" d="M208 184L209 185L208 184z"/>
<path style="fill:#c6d0e5; stroke:none;" d="M491.333 184.667L491.667 185.333L491.333 184.667M8 185L9 186L8 185z"/>
<path style="fill:#8b9fcb; stroke:none;" d="M202.333 185.667L202.667 186.333L202.333 185.667z"/>
<path style="fill:#c6d0e5; stroke:none;" d="M209 185L210 186L209 185M221.333 185.667L221.667 186.333L221.333 185.667z"/>
<path style="fill:#8b9fcb; stroke:none;" d="M8 186L9 187L8 186z"/>
<path style="fill:#c6d0e5; stroke:none;" d="M210 186L211 187L210 186z"/>
<path style="fill:#8b9fcb; stroke:none;" d="M491 186L492 187L491 186z"/>
<path style="fill:#c6d0e5; stroke:none;" d="M203 187L204 188L203 187z"/>
<path style="fill:#8b9fcb; stroke:none;" d="M212 187L213 188L212 187z"/>
<path style="fill:#c6d0e5; stroke:none;" d="M204 188L205 189L204 188z"/>
<path style="fill:#8b9fcb; stroke:none;" d="M213 188L214 189L213 188z"/>
<path style="fill:#fdfdfe; stroke:none;" d="M492 188L493 189L492 188z"/>
<path style="fill:#c6d0e5; stroke:none;" d="M7 189L8 190L7 189z"/>
<path style="fill:#8b9fcb; stroke:none;" d="M184.333 189.667L184.667 190.333L184.333 189.667M190 189L191 190L190 189M205 189L206 190L205 189z"/>
<path style="fill:#c6d0e5; stroke:none;" d="M214 189L215 190L214 189z"/>
<path style="fill:#8b9fcb; stroke:none;" d="M220.333 189.667L220.667 190.333L220.333 189.667M226.333 189.667L226.667 190.333L226.333 189.667z"/>
<path style="fill:#c6d0e5; stroke:none;" d="M492 189L493 190L492 189z"/>
<path style="fill:#8b9fcb; stroke:none;" d="M7 190L8 191L7 190z"/>
<path style="fill:#c6d0e5; stroke:none;" d="M190 190L191 191L190 190z"/>
<path style="fill:#8b9fcb; stroke:none;" d="M206 190L207 191L206 190M492 190L493 191L492 190z"/>
<path style="fill:#c6d0e5; stroke:none;" d="M208 191L209 192L208 191z"/>
<path style="fill:#8b9fcb; stroke:none;" d="M217 191L218 192L217 191z"/>
<path style="fill:#c6d0e5; stroke:none;" d="M6.33333 192.667L6.66667 193.333L6.33333 192.667M185 192L186 193L185 192z"/>
<path style="fill:#8b9fcb; stroke:none;" d="M191 192L192 193L191 192z"/>
<path style="fill:#c6d0e5; stroke:none;" d="M209 192L210 193L209 192M218 192L219 193L218 192z"/>
<path style="fill:#8b9fcb; stroke:none;" d="M219 192L220 193L219 192z"/>
<path style="fill:#c6d0e5; stroke:none;" d="M225 192L226 193L225 192M493 192L494 193L493 192z"/>
<path style="fill:#8b9fcb; stroke:none;" d="M185 193L186 194L185 193M210 193L211 194L210 193M225 193L226 194L225 193M493.333 193.667L493.667 194.333L493.333 193.667M6 194L7 195L6 194z"/>
<path style="fill:#c6d0e5; stroke:none;" d="M192 194L193 195L192 194z"/>
<path style="fill:#8b9fcb; stroke:none;" d="M186 195L187 196L186 195M193 195L194 196L193 195z"/>
<path style="fill:#c6d0e5; stroke:none;" d="M213 195L214 196L213 195M224 195L225 196L224 195z"/>
<path style="fill:#fdfdfe; stroke:none;" d="M5 196L6 197L5 196z"/>
<path style="fill:#c6d0e5; stroke:none;" d="M214 196L215 197L214 196M494.333 196.667L494.667 197.333L494.333 196.667M5 197L6 198L5 197z"/>
<path style="fill:#8b9fcb; stroke:none;" d="M187 197L188 198L187 197M195 197L196 198L195 197M215 197L216 198L215 197z"/>
<path style="fill:#c6d0e5; stroke:none;" d="M224 197L225 198L224 197z"/>
<path style="fill:#8b9fcb; stroke:none;" d="M5.33333 198.667L5.66667 199.333L5.33333 198.667M188 198L189 199L188 198M196 198L197 199L196 198M214 198L215 199L214 198M226 198L227 199L226 198M494.333 198.667L494.667 199.333L494.333 198.667z"/>
<path style="fill:#c6d0e5; stroke:none;" d="M189 199L190 200L189 199M197 199L198 200L197 199z"/>
<path style="fill:#8b9fcb; stroke:none;" d="M198 199L199 200L198 199z"/>
<path style="fill:#c6d0e5; stroke:none;" d="M213 199L214 200L213 199z"/>
<path style="fill:#8b9fcb; stroke:none;" d="M227 199L228 200L227 199z"/>
<path style="fill:#c6d0e5; stroke:none;" d="M190 200L191 201L190 200M199 200L200 201L199 200z"/>
<path style="fill:#8b9fcb; stroke:none;" d="M200 200L201 201L200 200M210 200L211 201L210 200z"/>
<path style="fill:#c6d0e5; stroke:none;" d="M211 200L212 201L211 200M228 200L229 201L228 200M191 201L192 202L191 201M203 201L203 202L208 202L203 201z"/>
<path style="fill:#8b9fcb; stroke:none;" d="M220 201L221 202L220 201z"/>
<path style="fill:#fdfdfe; stroke:none;" d="M495 201L496 202L495 201z"/>
<path style="fill:#c6d0e5; stroke:none;" d="M4 202L5 203L4 202M192 202L193 203L192 202M218 202L219 203L218 202M222 202L223 203L222 202z"/>
<path style="fill:#8b9fcb; stroke:none;" d="M231 202L232 203L231 202z"/>
<path style="fill:#c6d0e5; stroke:none;" d="M495 202L496 203L495 202z"/>
<path style="fill:#8b9fcb; stroke:none;" d="M4.33333 203.667L4.66667 204.333L4.33333 203.667M193 203L194 204L193 203M217 203L218 204L217 203z"/>
<path style="fill:#c6d0e5; stroke:none;" d="M223 203L224 204L223 203z"/>
<path style="fill:#8b9fcb; stroke:none;" d="M232 203L233 204L232 203M289 203L290 204L289 203z"/>
<path style="fill:#c6d0e5; stroke:none;" d="M290 203L290 204L293 204L290 203z"/>
<path style="fill:#fdfdfe; stroke:none;" d="M293 203.715C265.035 204.329 266.233 247.482 294 246.946C322.172 246.403 321.284 203.093 293 203.715z"/>
<path style="fill:#c6d0e5; stroke:none;" d="M294 203L294 204L297 204L294 203z"/>
<path style="fill:#8b9fcb; stroke:none;" d="M297.667 203.333L298.333 203.667L297.667 203.333M495.333 203.667L495.667 204.333L495.333 203.667z"/>
<path style="fill:#c6d0e5; stroke:none;" d="M195 204L196 205L195 204M215 204L216 205L215 204z"/>
<path style="fill:#8b9fcb; stroke:none;" d="M224 204L225 205L224 204z"/>
<path style="fill:#c6d0e5; stroke:none;" d="M233 204L234 205L233 204z"/>
<path style="fill:#8b9fcb; stroke:none;" d="M286 204L287 205L286 204z"/>
<path style="fill:#c6d0e5; stroke:none;" d="M300 204L301 205L300 204z"/>
<path style="fill:#8b9fcb; stroke:none;" d="M301 204L302 205L301 204z"/>
<path style="fill:#c6d0e5; stroke:none;" d="M197 205L198 206L197 205M213 205L214 206L213 205z"/>
<path style="fill:#8b9fcb; stroke:none;" d="M214 205L215 206L214 205M225 205L226 206L225 205z"/>
<path style="fill:#c6d0e5; stroke:none;" d="M234 205L235 206L234 205z"/>
<path style="fill:#8b9fcb; stroke:none;" d="M283 205L284 206L283 205z"/>
<path style="fill:#c6d0e5; stroke:none;" d="M284 205L285 206L284 205z"/>
<path style="fill:#8b9fcb; stroke:none;" d="M303 205L304 206L303 205M199 206L200 207L199 206z"/>
<path style="fill:#c6d0e5; stroke:none;" d="M200.667 206.333L201.333 206.667L200.667 206.333M209.667 206.333L210.333 206.667L209.667 206.333z"/>
<path style="fill:#8b9fcb; stroke:none;" d="M211 206L212 207L211 206z"/>
<path style="fill:#c6d0e5; stroke:none;" d="M227 206L228 207L227 206z"/>
<path style="fill:#8b9fcb; stroke:none;" d="M236 206L237 207L236 206z"/>
<path style="fill:#c6d0e5; stroke:none;" d="M282 206L283 207L282 206z"/>
<path style="fill:#8b9fcb; stroke:none;" d="M305 206L306 207L305 206z"/>
<path style="fill:#fdfdfe; stroke:none;" d="M496 206L497 207L496 206z"/>
<path style="fill:#c6d0e5; stroke:none;" d="M3.33333 207.667L3.66667 208.333L3.33333 207.667z"/>
<path style="fill:#8b9fcb; stroke:none;" d="M205 207L206 208L205 207z"/>
<path style="fill:#c6d0e5; stroke:none;" d="M228 207L229 208L228 207z"/>
<path style="fill:#8b9fcb; stroke:none;" d="M237 207L238 208L237 207M280 207L281 208L280 207z"/>
<path style="fill:#c6d0e5; stroke:none;" d="M306 207L307 208L306 207M496.333 207.667L496.667 208.333L496.333 207.667z"/>
<path style="fill:#8b9fcb; stroke:none;" d="M229 208L230 209L229 208z"/>
<path style="fill:#c6d0e5; stroke:none;" d="M238 208L239 209L238 208M279 208L280 209L279 208z"/>
<path style="fill:#8b9fcb; stroke:none;" d="M3.33333 209.667L3.66667 210.333L3.33333 209.667M230 209L231 210L230 209M240 209L241 210L240 209z"/>
<path style="fill:#c6d0e5; stroke:none;" d="M278 209L279 210L278 209M288 209L289 210L288 209z"/>
<path style="fill:#8b9fcb; stroke:none;" d="M289.667 209.333L290.333 209.667L289.667 209.333z"/>
<path style="fill:#3b5da9; stroke:none;" d="M291 209.483C269.999 213.561 276.675 245.504 298 240.606C317.42 236.145 310.198 205.755 291 209.483z"/>
<path style="fill:#8b9fcb; stroke:none;" d="M297 209L298 210L297 209z"/>
<path style="fill:#c6d0e5; stroke:none;" d="M298 209L299 210L298 209z"/>
<path style="fill:#8b9fcb; stroke:none;" d="M309 209L310 210L309 209M496.333 209.667L496.667 210.333L496.333 209.667z"/>
<path style="fill:#c6d0e5; stroke:none;" d="M232 210L233 211L232 210z"/>
<path style="fill:#8b9fcb; stroke:none;" d="M241 210L242 211L241 210z"/>
<path style="fill:#c6d0e5; stroke:none;" d="M277 210L278 211L277 210M286 210L287 211L286 210z"/>
<path style="fill:#8b9fcb; stroke:none;" d="M300 210L301 211L300 210z"/>
<path style="fill:#c6d0e5; stroke:none;" d="M233 211L234 212L233 211z"/>
<path style="fill:#8b9fcb; stroke:none;" d="M242 211L243 212L242 211M276 211L277 212L276 211M285 211L286 212L285 211z"/>
<path style="fill:#c6d0e5; stroke:none;" d="M302 211L303 212L302 211M310 211L311 212L310 211z"/>
<path style="fill:#8b9fcb; stroke:none;" d="M234 212L235 213L234 212z"/>
<path style="fill:#c6d0e5; stroke:none;" d="M243 212L244 213L243 212M283 212L284 213L283 212z"/>
<path style="fill:#8b9fcb; stroke:none;" d="M303 212L304 213L303 212z"/>
<path style="fill:#c6d0e5; stroke:none;" d="M311 212L312 213L311 212z"/>
<path style="fill:#fdfdfe; stroke:none;" d="M2 213L3 214L2 213z"/>
<path style="fill:#8b9fcb; stroke:none;" d="M245 213L246 214L245 213M282 213L283 214L282 213M312 213L313 214L312 213z"/>
<path style="fill:#fdfdfe; stroke:none;" d="M497 213L498 214L497 213z"/>
<path style="fill:#c6d0e5; stroke:none;" d="M2.33333 214.667L2.66667 215.333L2.33333 214.667M237 214L238 215L237 214z"/>
<path style="fill:#8b9fcb; stroke:none;" d="M246 214L247 215L246 214M274 214L275 215L274 214M281 214L282 215L281 214z"/>
<path style="fill:#c6d0e5; stroke:none;" d="M497 214L498 215L497 214z"/>
<path style="fill:#8b9fcb; stroke:none;" d="M238 215L239 216L238 215z"/>
<path style="fill:#c6d0e5; stroke:none;" d="M247 215L248 216L247 215M280 215L281 216L280 215z"/>
<path style="fill:#8b9fcb; stroke:none;" d="M306 215L307 216L306 215M313 215L314 216L313 215M497 215L497 218L498 218L497 215M2.33333 216.667L2.66667 217.333L2.33333 216.667M239 216L240 217L239 216z"/>
<path style="fill:#c6d0e5; stroke:none;" d="M248 216L249 217L248 216z"/>
<path style="fill:#8b9fcb; stroke:none;" d="M273 216L274 217L273 216M307 216L308 217L307 216z"/>
<path style="fill:#c6d0e5; stroke:none;" d="M241 217L242 218L241 217z"/>
<path style="fill:#8b9fcb; stroke:none;" d="M249 217L250 218L249 217M279 217L280 218L279 217z"/>
<path style="fill:#c6d0e5; stroke:none;" d="M308 217L309 218L308 217z"/>
<path style="fill:#8b9fcb; stroke:none;" d="M314 217L315 218L314 217z"/>
<path style="fill:#c6d0e5; stroke:none;" d="M242 218L243 219L242 218z"/>
<path style="fill:#8b9fcb; stroke:none;" d="M272 218L273 219L272 218z"/>
<path style="fill:#c6d0e5; stroke:none;" d="M278 218L279 219L278 218z"/>
<path style="fill:#8b9fcb; stroke:none;" d="M308 218L309 219L308 218z"/>
<path style="fill:#c6d0e5; stroke:none;" d="M314 218L315 219L314 218z"/>
<path style="fill:#8b9fcb; stroke:none;" d="M243 219L244 220L243 219M250 219L251 220L250 219z"/>
<path style="fill:#c6d0e5; stroke:none;" d="M272 219L273 220L272 219z"/>
<path style="fill:#8b9fcb; stroke:none;" d="M278 219L279 220L278 219z"/>
<path style="fill:#fdfdfe; stroke:none;" d="M1 220L2 221L1 220z"/>
<path style="fill:#c6d0e5; stroke:none;" d="M244 220L245 221L244 220M250.333 220.667L250.667 221.333L250.333 220.667M309 220L310 221L309 220z"/>
<path style="fill:#8b9fcb; stroke:none;" d="M315.333 220.667L315.667 221.333L315.333 220.667z"/>
<path style="fill:#fdfdfe; stroke:none;" d="M498 220L499 221L498 220z"/>
<path style="fill:#c6d0e5; stroke:none;" d="M1 221L1 224L2 224L1 221z"/>
<path style="fill:#8b9fcb; stroke:none;" d="M244 221L245 222L244 221M309 221L310 222L309 221z"/>
<path style="fill:#c6d0e5; stroke:none;" d="M498.333 221.667L498.667 222.333L498.333 221.667z"/>
<path style="fill:#8b9fcb; stroke:none;" d="M271 222L271 228L272 228L271 222z"/>
<path style="fill:#c6d0e5; stroke:none;" d="M277 222L278 223L277 222M315 222L315 228L316 228L315 222M245 223L245 279L246 279L246 241L245 223z"/>
<path style="fill:#8b9fcb; stroke:none;" d="M277 223L277 228L278 228L277 223M498 223L498 228L499 228L498 223M1 224L1 228L2 228L1 224z"/>
<path style="fill:#c6d0e5; stroke:none;" d="M277 228L278 229L277 228z"/>
<path style="fill:#8b9fcb; stroke:none;" d="M309.333 228.667L309.667 229.333L309.333 228.667M315 228L315 231L316 231L315 228z"/>
<path style="fill:#c6d0e5; stroke:none;" d="M272 230L273 231L272 230z"/>
<path style="fill:#8b9fcb; stroke:none;" d="M278 230L279 231L278 230z"/>
<path style="fill:#c6d0e5; stroke:none;" d="M309 230L310 231L309 230z"/>
<path style="fill:#8b9fcb; stroke:none;" d="M272 231L273 232L272 231z"/>
<path style="fill:#c6d0e5; stroke:none;" d="M278 231L279 232L278 231M308 232L309 233L308 232M314 232L315 233L314 232M499 232L499 236L500 236L499 232M0 233L0 238L1 238L0 233M273 233L274 234L273 233M279 233L280 234L279 233z"/>
<path style="fill:#8b9fcb; stroke:none;" d="M273 234L274 235L273 234z"/>
<path style="fill:#c6d0e5; stroke:none;" d="M307 234L308 235L307 234M313 234L314 235L313 234M274 235L275 236L274 235M280 235L281 236L280 235z"/>
<path style="fill:#8b9fcb; stroke:none;" d="M306 235L307 236L306 235M313 235L314 236L313 235M274 236L275 237L274 236z"/>
<path style="fill:#c6d0e5; stroke:none;" d="M281 236L282 237L281 236z"/>
<path style="fill:#8b9fcb; stroke:none;" d="M305 236L306 237L305 236z"/>
<path style="fill:#c6d0e5; stroke:none;" d="M312 236L313 237L312 236z"/>
<path style="fill:#8b9fcb; stroke:none;" d="M499 236L499 245L500 245L499 236z"/>
<path style="fill:#c6d0e5; stroke:none;" d="M275 237L276 238L275 237M282 237L283 238L282 237z"/>
<path style="fill:#8b9fcb; stroke:none;" d="M304 237L305 238L304 237M0 238L0 263L1 263L0 238z"/>
<path style="fill:#c6d0e5; stroke:none;" d="M303 238L304 239L303 238z"/>
<path style="fill:#8b9fcb; stroke:none;" d="M311 238L312 239L311 238M276 239L277 240L276 239z"/>
<path style="fill:#c6d0e5; stroke:none;" d="M285 239L286 240L285 239z"/>
<path style="fill:#8b9fcb; stroke:none;" d="M301 239L302 240L301 239M310 239L311 240L310 239M277 240L278 241L277 240z"/>
<path style="fill:#c6d0e5; stroke:none;" d="M287 240L288 241L287 240z"/>
<path style="fill:#8b9fcb; stroke:none;" d="M299 240L300 241L299 240z"/>
<path style="fill:#c6d0e5; stroke:none;" d="M309 240L310 241L309 240z"/>
<path style="fill:#8b9fcb; stroke:none;" d="M278 241L279 242L278 241z"/>
<path style="fill:#c6d0e5; stroke:none;" d="M290 241L291 242L290 241z"/>
<path style="fill:#8b9fcb; stroke:none;" d="M291 241L291 242L296 242L291 241z"/>
<path style="fill:#c6d0e5; stroke:none;" d="M296.667 241.333L297.333 241.667L296.667 241.333M308 241L309 242L308 241z"/>
<path style="fill:#8b9fcb; stroke:none;" d="M307 242L308 243L307 242z"/>
<path style="fill:#c6d0e5; stroke:none;" d="M281 243L282 244L281 243z"/>
<path style="fill:#8b9fcb; stroke:none;" d="M306 243L307 244L306 243M282 244L283 245L282 244z"/>
<path style="fill:#c6d0e5; stroke:none;" d="M283 244L284 245L283 244z"/>
<path style="fill:#8b9fcb; stroke:none;" d="M304 244L305 245L304 244M284 245L285 246L284 245z"/>
<path style="fill:#c6d0e5; stroke:none;" d="M285 245L286 246L285 245z"/>
<path style="fill:#8b9fcb; stroke:none;" d="M302 245L303 246L302 245M287 246L288 247L287 246z"/>
<path style="fill:#c6d0e5; stroke:none;" d="M288 246L289 247L288 246M298.667 246.333L299.333 246.667L298.667 246.333z"/>
<path style="fill:#8b9fcb; stroke:none;" d="M300 246L301 247L300 246M291 247L291 248L296 248L291 247M499 255L499 264L500 264L499 255z"/>
<path style="fill:#c6d0e5; stroke:none;" d="M0 263L0 267L1 267L0 263M499 264L499 268L500 268L499 264z"/>
<path style="fill:#010101; stroke:none;" d="M0 267L0 500L232 500L232 499C141.367 499 57.5784 430.212 21.3086 351C13.0059 332.867 7.5141 313.559 3.80401 294C2.22656 285.684 3.19895 274.623 0 267z"/>
<path style="fill:#fdfdfe; stroke:none;" d="M499 268L500 269L499 268z"/>
<path style="fill:#010101; stroke:none;" d="M499 269C498.997 297.963 489.247 327.928 477.309 354C441.55 432.095 356.872 499 268 499L268 500L500 500L500 337L500 290L499 269z"/>
<path style="fill:#8b9fcb; stroke:none;" d="M1 272L1 276L2 276L1 272M498 272L498 277L499 277L498 272z"/>
<path style="fill:#c6d0e5; stroke:none;" d="M1 276L1 279L2 279L1 276M498.333 277.667L498.667 278.333L498.333 277.667z"/>
<path style="fill:#8b9fcb; stroke:none;" d="M251 278L252 279L251 278M245 279L246 280L245 279z"/>
<path style="fill:#c6d0e5; stroke:none;" d="M251 279L252 280L251 279z"/>
<path style="fill:#8b9fcb; stroke:none;" d="M258 279L259 280L258 279z"/>
<path style="fill:#c6d0e5; stroke:none;" d="M264 279L265 280L264 279z"/>
<path style="fill:#fdfdfe; stroke:none;" d="M498 279L499 280L498 279z"/>
<path style="fill:#c6d0e5; stroke:none;" d="M252 280L253 281L252 280z"/>
<path style="fill:#8b9fcb; stroke:none;" d="M253 280L254 281L253 280M257 280L258 281L257 280M264 280L265 281L264 280z"/>
<path style="fill:#c6d0e5; stroke:none;" d="M246 281L247 282L246 281z"/>
<path style="fill:#8b9fcb; stroke:none;" d="M2.33333 282.667L2.66667 283.333L2.33333 282.667M246 282L247 283L246 282z"/>
<path style="fill:#c6d0e5; stroke:none;" d="M263 282L264 283L263 282z"/>
<path style="fill:#8b9fcb; stroke:none;" d="M497 282L497 285L498 285L497 282M247 283L248 284L247 283z"/>
<path style="fill:#c6d0e5; stroke:none;" d="M262 283L263 284L262 283M2.33333 284.667L2.66667 285.333L2.33333 284.667z"/>
<path style="fill:#8b9fcb; stroke:none;" d="M248 284L249 285L248 284z"/>
<path style="fill:#c6d0e5; stroke:none;" d="M261 284L262 285L261 284z"/>
<path style="fill:#8b9fcb; stroke:none;" d="M249 285L250 286L249 285z"/>
<path style="fill:#c6d0e5; stroke:none;" d="M250 285L251 286L250 285z"/>
<path style="fill:#8b9fcb; stroke:none;" d="M260 285L261 286L260 285z"/>
<path style="fill:#c6d0e5; stroke:none;" d="M497 285L498 286L497 285z"/>
<path style="fill:#8b9fcb; stroke:none;" d="M252 286L253 287L252 286z"/>
<path style="fill:#c6d0e5; stroke:none;" d="M253 286L254 287L253 286M257 286L258 287L257 286z"/>
<path style="fill:#8b9fcb; stroke:none;" d="M258 286L259 287L258 286z"/>
<path style="fill:#fdfdfe; stroke:none;" d="M497 286L498 287L497 286z"/>
<path style="fill:#8b9fcb; stroke:none;" d="M3.33333 289.667L3.66667 290.333L3.33333 289.667M496.333 289.667L496.667 290.333L496.333 289.667z"/>
<path style="fill:#c6d0e5; stroke:none;" d="M3.33333 291.667L3.66667 292.333L3.33333 291.667M496.333 291.667L496.667 292.333L496.333 291.667z"/>
<path style="fill:#fdfdfe; stroke:none;" d="M496 293L497 294L496 293z"/>
<path style="fill:#8b9fcb; stroke:none;" d="M4.33333 295.667L4.66667 296.333L4.33333 295.667M495.333 295.667L495.667 296.333L495.333 295.667z"/>
<path style="fill:#c6d0e5; stroke:none;" d="M4 297L5 298L4 297M495 297L496 298L495 297z"/>
<path style="fill:#fdfdfe; stroke:none;" d="M495 298L496 299L495 298z"/>
<path style="fill:#8b9fcb; stroke:none;" d="M5.33333 300.667L5.66667 301.333L5.33333 300.667M494.333 300.667L494.667 301.333L494.333 300.667z"/>
<path style="fill:#c6d0e5; stroke:none;" d="M5 302L6 303L5 302M494.333 302.667L494.667 303.333L494.333 302.667z"/>
<path style="fill:#8b9fcb; stroke:none;" d="M178 305L178 306L182 305L178 305M337.667 304.333L338.333 304.667L337.667 304.333z"/>
<path style="fill:#c6d0e5; stroke:none;" d="M339 304L340 305L339 304z"/>
<path style="fill:#8b9fcb; stroke:none;" d="M340 304L341 305L340 304M356.667 304.333L357.333 304.667L356.667 304.333z"/>
<path style="fill:#c6d0e5; stroke:none;" d="M358 304L359 305L358 304z"/>
<path style="fill:#8b9fcb; stroke:none;" d="M359 304L360 305L359 304M6 305L7 306L6 305z"/>
<path style="fill:#fdfdfe; stroke:none;" d="M182 311C183.902 302.655 174.566 308.006 182 311z"/>
<path style="fill:#c6d0e5; stroke:none;" d="M182 305L183 306L182 305z"/>
<path style="fill:#8b9fcb; stroke:none;" d="M335 305L336 306L335 305z"/>
<path style="fill:#fdfdfe; stroke:none;" d="M328 315L332 319C332 325.261 329.041 338.672 337 340C337 332.332 334.67 322.568 342 318L337 314L342 305C333.819 305.266 334.007 311.406 328 315z"/>
<path style="fill:#c6d0e5; stroke:none;" d="M354 305L355 306L354 305z"/>
<path style="fill:#fdfdfe; stroke:none;" d="M351 314C347.156 315.277 347.156 317.723 351 319C351 325.261 348.041 338.672 356 340L356 319L361 318L356 314C356.959 312.147 359.789 309.896 360.083 307.889C360.536 304.799 356.027 305.155 354.394 306.184C351.692 307.885 351.297 311.128 351 314z"/>
<path style="fill:#c6d0e5; stroke:none;" d="M360 305L361 306L360 305z"/>
<path style="fill:#8b9fcb; stroke:none;" d="M493.333 305.667L493.667 306.333L493.333 305.667z"/>
<path style="fill:#c6d0e5; stroke:none;" d="M6 306L7 307L6 306z"/>
<path style="fill:#8b9fcb; stroke:none;" d="M183 306L183 310L184 310L183 306z"/>
<path style="fill:#c6d0e5; stroke:none;" d="M334 306L335 307L334 306z"/>
<path style="fill:#8b9fcb; stroke:none;" d="M342 306L343 307L342 306M361 306L361 309L362 309L361 306z"/>
<path style="fill:#c6d0e5; stroke:none;" d="M333 307L334 308L333 307M342 307L343 308L342 307M352 307L353 308L352 307M493 307L494 308L493 307z"/>
<path style="fill:#8b9fcb; stroke:none;" d="M342 308L343 309L342 308M351 308L352 309L351 308M7 309L8 310L7 309z"/>
<path style="fill:#c6d0e5; stroke:none;" d="M332.333 309.667L332.667 310.333L332.333 309.667M341 309L342 310L341 309M351 309L352 310L351 309z"/>
<path style="fill:#8b9fcb; stroke:none;" d="M360 309L361 310L360 309M492 309L493 310L492 309z"/>
<path style="fill:#c6d0e5; stroke:none;" d="M7 310L8 311L7 310M179 310L180 311L179 310z"/>
<path style="fill:#8b9fcb; stroke:none;" d="M182 310L183 311L182 310M338.667 310.333L339.333 310.667L338.667 310.333M357.667 310.333L358.333 310.667L357.667 310.333z"/>
<path style="fill:#c6d0e5; stroke:none;" d="M492 310L493 311L492 310M356 311L357 312L356 311z"/>
<path style="fill:#fdfdfe; stroke:none;" d="M492 311L493 312L492 311z"/>
<path style="fill:#c6d0e5; stroke:none;" d="M337.333 312.667L337.667 313.333L337.333 312.667z"/>
<path style="fill:#8b9fcb; stroke:none;" d="M356 312L357 313L356 312M8 313L9 314L8 313M350 313L351 314L350 313z"/>
<path style="fill:#c6d0e5; stroke:none;" d="M356 313L357 314L356 313z"/>
<path style="fill:#8b9fcb; stroke:none;" d="M491 313L492 314L491 313z"/>
<path style="fill:#c6d0e5; stroke:none;" d="M8 314L9 315L8 314M329 314L330 315L329 314M340 314L341 315L340 314z"/>
<path style="fill:#8b9fcb; stroke:none;" d="M347 314L348 315L347 314z"/>
<path style="fill:#c6d0e5; stroke:none;" d="M359 314L360 315L359 314M491.333 314.667L491.667 315.333L491.333 314.667z"/>
<path style="fill:#8b9fcb; stroke:none;" d="M79 315L80 316L79 315z"/>
<path style="fill:#fdfdfe; stroke:none;" d="M84 339C97.4182 342.195 113.198 327.108 97.8951 317.228C94.8044 315.233 81.6082 313.433 79.6034 317.336C77.3661 321.691 79 330.182 79 335C79 338.408 77.6703 345.552 80.0085 348.338C83.8929 352.967 83.9998 340.399 84 339z"/>
<path style="fill:#8b9fcb; stroke:none;" d="M83 315L84 316L83 315M87 315L88 316L87 315z"/>
<path style="fill:#c6d0e5; stroke:none;" d="M88 315L89 316L88 315M94 315L95 316L94 315z"/>
<path style="fill:#8b9fcb; stroke:none;" d="M95 315L96 316L95 315M118 315L119 316L118 315z"/>
<path style="fill:#c6d0e5; stroke:none;" d="M119 315L120 316L119 315z"/>
<path style="fill:#fdfdfe; stroke:none;" d="M120.004 315.573C111.071 317.713 107.758 330.301 114.228 336.772C118.234 340.777 126.592 340.793 131.852 339.552C136.525 338.449 135 330.564 135 327C134.999 317.083 130.622 313.028 120.004 315.573z"/>
<path style="fill:#c6d0e5; stroke:none;" d="M125 315L126 316L125 315z"/>
<path style="fill:#8b9fcb; stroke:none;" d="M126 315L127 316L126 315M130 315L131 316L130 315z"/>
<path style="fill:#c6d0e5; stroke:none;" d="M133 315L134 316L133 315M146 315L145 349L146 349L146 315z"/>
<path style="fill:#fdfdfe; stroke:none;" d="M147 315L146 350C151.798 348.993 150.997 343.901 151 339C162.904 341.834 177.772 331.252 166.606 319.225C161.263 313.469 153.745 316.554 147 315z"/>
<path style="fill:#c6d0e5; stroke:none;" d="M149 315L150 316L149 315z"/>
<path style="fill:#8b9fcb; stroke:none;" d="M153 315L154 316L153 315z"/>
<path style="fill:#c6d0e5; stroke:none;" d="M154.667 315.333L155.333 315.667L154.667 315.333M160 315L161 316L160 315z"/>
<path style="fill:#8b9fcb; stroke:none;" d="M161 315L162 316L161 315z"/>
<path style="fill:#c6d0e5; stroke:none;" d="M179 315L178 317L179 315z"/>
<path style="fill:#fdfdfe; stroke:none;" d="M183 340L182 315C175.827 318.404 174.964 338.659 183 340z"/>
<path style="fill:#8b9fcb; stroke:none;" d="M182 315L183 316L182 315M191 315L190 317L191 315z"/>
<path style="fill:#fdfdfe; stroke:none;" d="M192 315C188.097 328.205 190.999 339.99 206 340L193 345C196.053 350.537 204.234 350 208.442 345.606C213.401 340.428 215.411 317.979 208 315C206.46 320.212 208.58 327.145 205.821 331.863C203.709 335.473 199.148 335.531 197.028 331.877C193.709 326.156 198.886 318.797 192 315z"/>
<path style="fill:#c6d0e5; stroke:none;" d="M194 315L195 316L194 315z"/>
<path style="fill:#8b9fcb; stroke:none;" d="M207 315L208 316L207 315z"/>
<path style="fill:#c6d0e5; stroke:none;" d="M210 315L211 316L210 315z"/>
<path style="fill:#8b9fcb; stroke:none;" d="M228 315L229 316L228 315z"/>
<path style="fill:#c6d0e5; stroke:none;" d="M229.667 315.333L230.333 315.667L229.667 315.333z"/>
<path style="fill:#fdfdfe; stroke:none;" d="M231 315.523C215.48 318.152 219.534 343.706 235 340.402C249.916 337.215 246.347 312.924 231 315.523z"/>
<path style="fill:#c6d0e5; stroke:none;" d="M235 315L236 316L235 315z"/>
<path style="fill:#8b9fcb; stroke:none;" d="M236 315L237 316L236 315M276 315L277 316L276 315z"/>
<path style="fill:#c6d0e5; stroke:none;" d="M277.667 315.333L278.333 315.667L277.667 315.333z"/>
<path style="fill:#fdfdfe; stroke:none;" d="M290 334C286.879 334.159 283.031 335.795 280.004 335.049C273.069 333.339 271.63 324.646 278.044 321.333C281.781 319.403 286.108 321.613 290 322C287.813 309.11 267.999 316.567 268.198 328C268.386 338.747 287.89 346.263 290 334z"/>
<path style="fill:#c6d0e5; stroke:none;" d="M283.667 315.333L284.333 315.667L283.667 315.333z"/>
<path style="fill:#8b9fcb; stroke:none;" d="M285 315L286 316L285 315M305 315L306 316L305 315z"/>
<path style="fill:#c6d0e5; stroke:none;" d="M306.667 315.333L307.333 315.667L306.667 315.333z"/>
<path style="fill:#fdfdfe; stroke:none;" d="M308 315.523C292.509 318.147 296.455 343.457 311.999 340.427C326.931 337.516 323.243 312.942 308 315.523z"/>
<path style="fill:#c6d0e5; stroke:none;" d="M312 315L313 316L312 315z"/>
<path style="fill:#8b9fcb; stroke:none;" d="M313 315L314 316L313 315z"/>
<path style="fill:#c6d0e5; stroke:none;" d="M341 315L342 316L341 315M360 315L361 316L360 315z"/>
<path style="fill:#8b9fcb; stroke:none;" d="M372.667 315.333L373.333 315.667L372.667 315.333z"/>
<path style="fill:#c6d0e5; stroke:none;" d="M374 315L375 316L374 315z"/>
<path style="fill:#fdfdfe; stroke:none;" d="M387 335C379.452 333.52 375.799 337.194 370 330L389 329C388.663 314.679 368.494 309.269 365.345 325C362.863 337.4 380.741 346.927 387 335z"/>
<path style="fill:#c6d0e5; stroke:none;" d="M380 315L381 316L380 315z"/>
<path style="fill:#8b9fcb; stroke:none;" d="M381 315L382 316L381 315M404 315L405 316L404 315z"/>
<path style="fill:#c6d0e5; stroke:none;" d="M405.667 315.333L406.333 315.667L405.667 315.333z"/>
<path style="fill:#fdfdfe; stroke:none;" d="M418 334C410.814 334.715 405.784 336.919 402 329L421 329C420.274 313.377 398.06 310.264 396.642 327C395.647 338.739 415.866 346.405 418 334z"/>
<path style="fill:#c6d0e5; stroke:none;" d="M411.667 315.333L412.333 315.667L411.667 315.333z"/>
<path style="fill:#8b9fcb; stroke:none;" d="M413 315L414 316L413 315M84 316L85 317L84 316z"/>
<path style="fill:#c6d0e5; stroke:none;" d="M85 316L86 317L85 316z"/>
<path style="fill:#8b9fcb; stroke:none;" d="M97 316L98 317L97 316M116 316L117 317L116 316M128.667 316.333L129.333 316.667L128.667 316.333z"/>
<path style="fill:#c6d0e5; stroke:none;" d="M134 316L135 317L134 316M150 316L151 317L150 316z"/>
<path style="fill:#8b9fcb; stroke:none;" d="M151 316L152 317L151 316z"/>
<path style="fill:#c6d0e5; stroke:none;" d="M163 316L164 317L163 316z"/>
<path style="fill:#8b9fcb; stroke:none;" d="M183 316L183 339L184 339L183 316z"/>
<path style="fill:#c6d0e5; stroke:none;" d="M195 316L196 317L195 316z"/>
<path style="fill:#8b9fcb; stroke:none;" d="M226 316L227 317L226 316z"/>
<path style="fill:#c6d0e5; stroke:none;" d="M238 316L239 317L238 316z"/>
<path style="fill:#8b9fcb; stroke:none;" d="M274 316L275 317L274 316M287 316L288 317L287 316M303 316L304 317L303 316z"/>
<path style="fill:#c6d0e5; stroke:none;" d="M315 316L316 317L315 316z"/>
<path style="fill:#8b9fcb; stroke:none;" d="M327 316L328 317L327 316M346.333 316.667L346.667 317.333L346.333 316.667z"/>
<path style="fill:#c6d0e5; stroke:none;" d="M371 316L372 317L371 316z"/>
<path style="fill:#8b9fcb; stroke:none;" d="M383 316L384 317L383 316M402 316L403 317L402 316z"/>
<path style="fill:#c6d0e5; stroke:none;" d="M414 316L415 317L414 316z"/>
<path style="fill:#8b9fcb; stroke:none;" d="M415 316L416 317L415 316M9 317L10 318L9 317M78 317L78 348L79 348L78 317z"/>
<path style="fill:#c6d0e5; stroke:none;" d="M98 317L99 318L98 317M115 317L116 318L115 317z"/>
<path style="fill:#8b9fcb; stroke:none;" d="M165 317L166 318L165 317z"/>
<path style="fill:#c6d0e5; stroke:none;" d="M190 317L190 331L191 331L190 317z"/>
<path style="fill:#8b9fcb; stroke:none;" d="M206 317L206 331L207 331L206 317z"/>
<path style="fill:#c6d0e5; stroke:none;" d="M225 317L226 318L225 317z"/>
<path style="fill:#8b9fcb; stroke:none;" d="M240 317L241 318L240 317z"/>
<path style="fill:#c6d0e5; stroke:none;" d="M273 317L274 318L273 317M288 317L289 318L288 317M302 317L303 318L302 317z"/>
<path style="fill:#8b9fcb; stroke:none;" d="M317 317L318 318L317 317M369 317L370 318L369 317z"/>
<path style="fill:#c6d0e5; stroke:none;" d="M384 317L385 318L384 317M401 317L402 318L401 317M416 317L417 318L416 317z"/>
<path style="fill:#8b9fcb; stroke:none;" d="M490 317L491 318L490 317z"/>
<path style="fill:#c6d0e5; stroke:none;" d="M9 318L10 319L9 318z"/>
<path style="fill:#8b9fcb; stroke:none;" d="M166 318L167 319L166 318z"/>
<path style="fill:#c6d0e5; stroke:none;" d="M224 318L225 319L224 318z"/>
<path style="fill:#8b9fcb; stroke:none;" d="M241 318L242 319L241 318M271 318L272 319L271 318z"/>
<path style="fill:#c6d0e5; stroke:none;" d="M301 318L302 319L301 318z"/>
<path style="fill:#8b9fcb; stroke:none;" d="M318 318L319 319L318 318M328 318L329 319L328 318M341 318L342 319L341 318z"/>
<path style="fill:#c6d0e5; stroke:none;" d="M347 318L348 319L347 318z"/>
<path style="fill:#8b9fcb; stroke:none;" d="M360 318L361 319L360 318z"/>
<path style="fill:#c6d0e5; stroke:none;" d="M368 318L369 319L368 318M400 318L401 319L400 318M417 318L418 319L417 318M490 318L491 319L490 318M113 319L114 320L113 319z"/>
<path style="fill:#8b9fcb; stroke:none;" d="M167 319L168 320L167 319z"/>
<path style="fill:#c6d0e5; stroke:none;" d="M223 319L224 320L223 319z"/>
<path style="fill:#8b9fcb; stroke:none;" d="M290.333 319.667L290.667 320.333L290.333 319.667z"/>
<path style="fill:#c6d0e5; stroke:none;" d="M300 319L301 320L300 319z"/>
<path style="fill:#8b9fcb; stroke:none;" d="M329.667 319.333L330.333 319.667L329.667 319.333z"/>
<path style="fill:#c6d0e5; stroke:none;" d="M331 319L332 320L331 319z"/>
<path style="fill:#8b9fcb; stroke:none;" d="M338 319L338 320L341 320L338 319M348.667 319.333L349.333 319.667L348.667 319.333z"/>
<path style="fill:#c6d0e5; stroke:none;" d="M350 319L351 320L350 319M356 319L357 320L356 319z"/>
<path style="fill:#8b9fcb; stroke:none;" d="M357.667 319.333L358.333 319.667L357.667 319.333M367 319L368 320L367 319z"/>
<path style="fill:#c6d0e5; stroke:none;" d="M376.667 319.333L377.333 319.667L376.667 319.333M399 319L400 320L399 319M408.667 319.333L409.333 319.667L408.667 319.333M418 319L419 320L418 319z"/>
<path style="fill:#8b9fcb; stroke:none;" d="M10 320L11 321L10 320z"/>
<path style="fill:#c6d0e5; stroke:none;" d="M89 320L90 321L89 320z"/>
<path style="fill:#8b9fcb; stroke:none;" d="M90.6667 320.333L91.3333 320.667L90.6667 320.333z"/>
<path style="fill:#c6d0e5; stroke:none;" d="M92 320L93 321L92 320M101 320L102 321L101 320M112 320L113 321L112 320M120 320L121 321L120 320z"/>
<path style="fill:#8b9fcb; stroke:none;" d="M121 320L121 321L124 321L121 320z"/>
<path style="fill:#c6d0e5; stroke:none;" d="M124 320L125 321L124 320M156 320L157 321L156 320z"/>
<path style="fill:#8b9fcb; stroke:none;" d="M157.667 320.333L158.333 320.667L157.667 320.333z"/>
<path style="fill:#c6d0e5; stroke:none;" d="M159 320L160 321L159 320z"/>
<path style="fill:#8b9fcb; stroke:none;" d="M168 320L169 321L168 320M222 320L223 321L222 320z"/>
<path style="fill:#c6d0e5; stroke:none;" d="M231 320L232 321L231 320z"/>
<path style="fill:#8b9fcb; stroke:none;" d="M232.667 320.333L233.333 320.667L232.667 320.333z"/>
<path style="fill:#c6d0e5; stroke:none;" d="M234 320L235 321L234 320M278 320L279 321L278 320z"/>
<path style="fill:#8b9fcb; stroke:none;" d="M279 320L279 321L283 321L279 320z"/>
<path style="fill:#c6d0e5; stroke:none;" d="M283 320L284 321L283 320z"/>
<path style="fill:#8b9fcb; stroke:none;" d="M299 320L300 321L299 320z"/>
<path style="fill:#c6d0e5; stroke:none;" d="M308 320L309 321L308 320z"/>
<path style="fill:#8b9fcb; stroke:none;" d="M309.667 320.333L310.333 320.667L309.667 320.333z"/>
<path style="fill:#c6d0e5; stroke:none;" d="M311 320L312 321L311 320M319 320L320 321L319 320M337 320L337 339L338 339L337 320z"/>
<path style="fill:#8b9fcb; stroke:none;" d="M356 320L356 339L357 339L356 320M366 320L367 321L366 320z"/>
<path style="fill:#c6d0e5; stroke:none;" d="M373 320L370 324L373 320z"/>
<path style="fill:#8b9fcb; stroke:none;" d="M374 320L375 321L374 320z"/>
<path style="fill:#3b5da9; stroke:none;" d="M371 325L384 325C380.743 319.124 374.151 318.996 371 325z"/>
<path style="fill:#c6d0e5; stroke:none;" d="M380 320L381 321L380 320M387 320L388 321L387 320M398 320L399 321L398 320M405 320L406 321L405 320z"/>
<path style="fill:#3b5da9; stroke:none;" d="M402 325L416 325C411.507 319.333 406.409 319.213 402 325z"/>
<path style="fill:#8b9fcb; stroke:none;" d="M411 320L412 321L411 320z"/>
<path style="fill:#c6d0e5; stroke:none;" d="M412 320L413 321L412 320z"/>
<path style="fill:#8b9fcb; stroke:none;" d="M419 320L420 321L419 320M489.333 320.667L489.667 321.333L489.333 320.667z"/>
<path style="fill:#c6d0e5; stroke:none;" d="M10.3333 321.667L10.6667 322.333L10.3333 321.667M87 321L85 324L87 321z"/>
<path style="fill:#3b5da9; stroke:none;" d="M88.1481 322.032C81.1574 326.057 87.2821 338.254 94.7716 333.678C101.702 329.444 95.5038 317.796 88.1481 322.032z"/>
<path style="fill:#8b9fcb; stroke:none;" d="M94 321L95 322L94 321M102 321L103 322L102 321M119 321L120 322L119 321z"/>
<path style="fill:#3b5da9; stroke:none;" d="M120.109 321.747C112.675 324.793 117.079 337.344 124.892 334.242C132.359 331.279 128.141 318.456 120.109 321.747z"/>
<path style="fill:#c6d0e5; stroke:none;" d="M126 321L127 322L126 321z"/>
<path style="fill:#8b9fcb; stroke:none;" d="M154 321L152 324L154 321z"/>
<path style="fill:#3b5da9; stroke:none;" d="M155.109 322.032C147.724 326.037 153.456 338.033 160.852 333.816C167.398 330.084 162.488 318.031 155.109 322.032z"/>
<path style="fill:#c6d0e5; stroke:none;" d="M161 321L162 322L161 321M168 321L169 322L168 321z"/>
<path style="fill:#8b9fcb; stroke:none;" d="M229 321L230 322L229 321z"/>
<path style="fill:#3b5da9; stroke:none;" d="M230.133 321.747C222.893 324.775 227.187 337.263 234.942 334.381C242.552 331.553 238.296 318.333 230.133 321.747z"/>
<path style="fill:#c6d0e5; stroke:none;" d="M236 321L237 322L236 321z"/>
<path style="fill:#8b9fcb; stroke:none;" d="M243 321L244 322L243 321M269 321L270 322L269 321M277 321L278 322L277 321M284 321L285 322L284 321z"/>
<path style="fill:#c6d0e5; stroke:none;" d="M285 321L286 322L285 321z"/>
<path style="fill:#8b9fcb; stroke:none;" d="M306 321L307 322L306 321z"/>
<path style="fill:#3b5da9; stroke:none;" d="M307.133 321.747C299.862 324.788 304.046 337.305 311.941 334.381C319.554 331.562 315.297 318.333 307.133 321.747z"/>
<path style="fill:#c6d0e5; stroke:none;" d="M313 321L314 322L313 321z"/>
<path style="fill:#8b9fcb; stroke:none;" d="M320 321L321 322L320 321M381 321L382 322L381 321M388 321L389 322L388 321M397 321L398 322L397 321M404 321L405 322L404 321M413 321L414 322L413 321z"/>
<path style="fill:#c6d0e5; stroke:none;" d="M102 322L103 323L102 322M111 322L112 323L111 322M117 322L118 323L117 322M127 322L128 323L127 322z"/>
<path style="fill:#8b9fcb; stroke:none;" d="M162 322L163 323L162 322M169 322L170 323L169 322M221 322L222 323L221 322M237 322L238 323L237 322z"/>
<path style="fill:#c6d0e5; stroke:none;" d="M275 322L276 323L275 322z"/>
<path style="fill:#8b9fcb; stroke:none;" d="M286 322L287 323L286 322z"/>
<path style="fill:#c6d0e5; stroke:none;" d="M287 322L288 323L287 322z"/>
<path style="fill:#8b9fcb; stroke:none;" d="M288 322L289 323L288 322M298 322L299 323L298 322z"/>
<path style="fill:#c6d0e5; stroke:none;" d="M304 322L305 323L304 322z"/>
<path style="fill:#8b9fcb; stroke:none;" d="M314 322L315 323L314 322M365 322L366 323L365 322z"/>
<path style="fill:#c6d0e5; stroke:none;" d="M383 322L384 323L383 322M388 322L389 323L388 322M397 322L398 323L397 322z"/>
<path style="fill:#8b9fcb; stroke:none;" d="M403 322L404 323L403 322M414 322L415 323L414 322M420 322L421 323L420 322z"/>
<path style="fill:#c6d0e5; stroke:none;" d="M489 322L490 323L489 322M128 323L129 324L128 323M163 323L164 324L163 323M169 323L170 324L169 323M238 323L239 324L238 323z"/>
<path style="fill:#8b9fcb; stroke:none;" d="M244 323L245 324L244 323M268 323L269 324L268 323z"/>
<path style="fill:#c6d0e5; stroke:none;" d="M274 323L275 324L274 323M315 323L316 324L315 323z"/>
<path style="fill:#8b9fcb; stroke:none;" d="M321 323L322 324L321 323z"/>
<path style="fill:#c6d0e5; stroke:none;" d="M365 323L366 324L365 323z"/>
<path style="fill:#8b9fcb; stroke:none;" d="M402 323L403 324L402 323M415 323L416 324L415 323z"/>
<path style="fill:#c6d0e5; stroke:none;" d="M420 323L421 324L420 323z"/>
<path style="fill:#8b9fcb; stroke:none;" d="M11 324L12 325L11 324M97 324L98 325L97 324M103 324L104 325L103 324M110.333 324.667L110.667 325.333L110.333 324.667M116 324L117 325L116 324M128 324L129 325L128 324z"/>
<path style="fill:#c6d0e5; stroke:none;" d="M151 324L152 325L151 324M226 324L227 325L226 324M244 324L245 325L244 324M268 324L269 325L268 324z"/>
<path style="fill:#8b9fcb; stroke:none;" d="M274 324L275 325L274 324M297 324L297 327L298 327L297 324z"/>
<path style="fill:#c6d0e5; stroke:none;" d="M303 324L304 325L303 324M321 324L322 325L321 324z"/>
<path style="fill:#8b9fcb; stroke:none;" d="M370 324L371 325L370 324M384 324L385 325L384 324M389.333 324.667L389.667 325.333L389.333 324.667M396 324L397 325L396 324z"/>
<path style="fill:#c6d0e5; stroke:none;" d="M416 324L417 325L416 324z"/>
<path style="fill:#8b9fcb; stroke:none;" d="M488 324L489 325L488 324z"/>
<path style="fill:#c6d0e5; stroke:none;" d="M11 325L12 326L11 325M84 325L85 326L84 325M103 325L104 326L103 325M129.333 325.667L129.667 326.333L129.333 325.667z"/>
<path style="fill:#8b9fcb; stroke:none;" d="M151 325L152 326L151 325z"/>
<path style="fill:#c6d0e5; stroke:none;" d="M164 325L165 326L164 325z"/>
<path style="fill:#8b9fcb; stroke:none;" d="M170 325L170 331L171 331L170 325M220 325L221 326L220 325M226 325L227 326L226 325z"/>
<path style="fill:#c6d0e5; stroke:none;" d="M239 325L240 326L239 325M273 325L274 326L273 325z"/>
<path style="fill:#8b9fcb; stroke:none;" d="M303 325L304 326L303 325z"/>
<path style="fill:#c6d0e5; stroke:none;" d="M316 325L317 326L316 325z"/>
<path style="fill:#8b9fcb; stroke:none;" d="M364 325L364 331L365 331L364 325z"/>
<path style="fill:#c6d0e5; stroke:none;" d="M370 325L370 326L385 326L370 325M396.333 325.667L396.667 326.333L396.333 325.667M402 325L402 326L416 326L402 325M488 325L489 326L488 325z"/>
<path style="fill:#8b9fcb; stroke:none;" d="M84 326L84 330L85 330L84 326z"/>
<path style="fill:#c6d0e5; stroke:none;" d="M110 326L110 330L111 330L110 326M115 326L115 329L116 329L115 326z"/>
<path style="fill:#8b9fcb; stroke:none;" d="M164 326L164 330L165 330L164 326z"/>
<path style="fill:#c6d0e5; stroke:none;" d="M220 326L220 330L221 330L220 326z"/>
<path style="fill:#8b9fcb; stroke:none;" d="M239 326L239 330L240 330L239 326M273 326L273 330L274 330L273 326M316 326L316 330L317 330L316 326z"/>
<path style="fill:#c6d0e5; stroke:none;" d="M389.333 326.667L389.667 327.333L389.333 326.667z"/>
<path style="fill:#8b9fcb; stroke:none;" d="M421.333 326.667L421.667 327.333L421.333 326.667M12 327L13 328L12 327z"/>
<path style="fill:#c6d0e5; stroke:none;" d="M98.3333 327.667L98.6667 328.333L98.3333 327.667z"/>
<path style="fill:#8b9fcb; stroke:none;" d="M129.333 327.667L129.667 328.333L129.333 327.667M267.333 327.667L267.667 328.333L267.333 327.667z"/>
<path style="fill:#c6d0e5; stroke:none;" d="M297.333 327.667L297.667 328.333L297.333 327.667z"/>
<path style="fill:#8b9fcb; stroke:none;" d="M322.333 327.667L322.667 328.333L322.333 327.667M487 327L488 328L487 327z"/>
<path style="fill:#c6d0e5; stroke:none;" d="M12 328L13 329L12 328z"/>
<path style="fill:#8b9fcb; stroke:none;" d="M389 328L390 329L389 328z"/>
<path style="fill:#c6d0e5; stroke:none;" d="M487 328L488 329L487 328M129 329L130 330L129 329z"/>
<path style="fill:#8b9fcb; stroke:none;" d="M297 329L297 332L298 332L297 329z"/>
<path style="fill:#c6d0e5; stroke:none;" d="M371 329L371 330L388 330L371 329z"/>
<path style="fill:#8b9fcb; stroke:none;" d="M388 329L389 330L388 329z"/>
<path style="fill:#c6d0e5; stroke:none;" d="M396.333 329.667L396.667 330.333L396.333 329.667M402 329L402 330L420 330L402 329z"/>
<path style="fill:#8b9fcb; stroke:none;" d="M420 329L421 330L420 329M13 330L14 331L13 330z"/>
<path style="fill:#c6d0e5; stroke:none;" d="M84 330L85 331L84 330M103 330L104 331L103 330z"/>
<path style="fill:#8b9fcb; stroke:none;" d="M110.333 330.667L110.667 331.333L110.333 330.667M151 330L152 331L151 330z"/>
<path style="fill:#c6d0e5; stroke:none;" d="M164 330L165 331L164 330z"/>
<path style="fill:#8b9fcb; stroke:none;" d="M220 330L221 331L220 330M226 330L227 331L226 330z"/>
<path style="fill:#c6d0e5; stroke:none;" d="M239 330L240 331L239 330z"/>
<path style="fill:#8b9fcb; stroke:none;" d="M303 330L304 331L303 330z"/>
<path style="fill:#c6d0e5; stroke:none;" d="M316 330L317 331L316 330M370 330L371 331L370 330z"/>
<path style="fill:#8b9fcb; stroke:none;" d="M402 330L403 331L402 330M486 330L487 331L486 330z"/>
<path style="fill:#c6d0e5; stroke:none;" d="M13 331L14 332L13 331z"/>
<path style="fill:#8b9fcb; stroke:none;" d="M85 331L86 332L85 331z"/>
<path style="fill:#c6d0e5; stroke:none;" d="M97 331L98 332L97 331z"/>
<path style="fill:#8b9fcb; stroke:none;" d="M103 331L104 332L103 331M116 331L117 332L116 331M128 331L129 332L128 331z"/>
<path style="fill:#c6d0e5; stroke:none;" d="M151 331L152 332L151 331z"/>
<path style="fill:#8b9fcb; stroke:none;" d="M190.333 331.667L190.667 332.333L190.333 331.667z"/>
<path style="fill:#c6d0e5; stroke:none;" d="M206 331L207 332L206 331M226 331L227 332L226 331M244 331L245 332L244 331M268 331L269 332L268 331z"/>
<path style="fill:#8b9fcb; stroke:none;" d="M274 331L275 332L274 331z"/>
<path style="fill:#c6d0e5; stroke:none;" d="M303 331L304 332L303 331M321 331L322 332L321 331z"/>
<path style="fill:#8b9fcb; stroke:none;" d="M396 331L397 332L396 331z"/>
<path style="fill:#c6d0e5; stroke:none;" d="M402 331L403 332L402 331M486 331L487 332L486 331z"/>
<path style="fill:#8b9fcb; stroke:none;" d="M117 332L118 333L117 332M152 332L153 333L152 332z"/>
<path style="fill:#c6d0e5; stroke:none;" d="M163 332L164 333L163 332M169 332L170 333L169 332z"/>
<path style="fill:#8b9fcb; stroke:none;" d="M196 332L197 333L196 332M227 332L228 333L227 332z"/>
<path style="fill:#c6d0e5; stroke:none;" d="M238 332L239 333L238 332z"/>
<path style="fill:#8b9fcb; stroke:none;" d="M244 332L245 333L244 332M268 332L269 333L268 332z"/>
<path style="fill:#c6d0e5; stroke:none;" d="M315 332L316 333L315 332z"/>
<path style="fill:#8b9fcb; stroke:none;" d="M321 332L322 333L321 332z"/>
<path style="fill:#c6d0e5; stroke:none;" d="M365 332L366 333L365 332M371 332L372 333L371 332z"/>
<path style="fill:#8b9fcb; stroke:none;" d="M403 332L404 333L403 332M14 333L15 334L14 333z"/>
<path style="fill:#c6d0e5; stroke:none;" d="M86 333L87 334L86 333z"/>
<path style="fill:#8b9fcb; stroke:none;" d="M95 333L96 334L95 333z"/>
<path style="fill:#c6d0e5; stroke:none;" d="M102 333L103 334L102 333z"/>
<path style="fill:#8b9fcb; stroke:none;" d="M111 333L112 334L111 333z"/>
<path style="fill:#c6d0e5; stroke:none;" d="M127 333L128 334L127 333z"/>
<path style="fill:#8b9fcb; stroke:none;" d="M153 333L154 334L153 333z"/>
<path style="fill:#c6d0e5; stroke:none;" d="M162 333L163 334L162 333z"/>
<path style="fill:#8b9fcb; stroke:none;" d="M197 333L198 334L197 333z"/>
<path style="fill:#c6d0e5; stroke:none;" d="M205 333L206 334L205 333z"/>
<path style="fill:#8b9fcb; stroke:none;" d="M221 333L222 334L221 333M237 333L238 334L237 333z"/>
<path style="fill:#c6d0e5; stroke:none;" d="M269 333L270 334L269 333M286 333L286 334L289 334L286 333z"/>
<path style="fill:#8b9fcb; stroke:none;" d="M298 333L299 334L298 333z"/>
<path style="fill:#c6d0e5; stroke:none;" d="M304 333L305 334L304 333z"/>
<path style="fill:#8b9fcb; stroke:none;" d="M314 333L315 334L314 333M365 333L366 334L365 333M372 333L373 334L372 333M383 333L384 334L383 333z"/>
<path style="fill:#c6d0e5; stroke:none;" d="M384 333L385 334L384 333z"/>
<path style="fill:#8b9fcb; stroke:none;" d="M385 333L386 334L385 333z"/>
<path style="fill:#c6d0e5; stroke:none;" d="M397 333L398 334L397 333z"/>
<path style="fill:#8b9fcb; stroke:none;" d="M404 333L405 334L404 333M415 333L416 334L415 333z"/>
<path style="fill:#c6d0e5; stroke:none;" d="M416 333L417 334L416 333z"/>
<path style="fill:#8b9fcb; stroke:none;" d="M417 333L418 334L417 333M485 333L486 334L485 333z"/>
<path style="fill:#c6d0e5; stroke:none;" d="M14 334L15 335L14 334z"/>
<path style="fill:#8b9fcb; stroke:none;" d="M88 334L89 335L88 334M94 334L95 335L94 334M102 334L103 335L102 334M119 334L120 335L119 334M125 334L126 335L125 334z"/>
<path style="fill:#c6d0e5; stroke:none;" d="M154 334L155 335L154 334z"/>
<path style="fill:#8b9fcb; stroke:none;" d="M160 334L161 335L160 334z"/>
<path style="fill:#c6d0e5; stroke:none;" d="M161 334L162 335L161 334M168 334L169 335L168 334M191 334L192 335L191 334z"/>
<path style="fill:#8b9fcb; stroke:none;" d="M198 334L199 335L198 334M203 334L204 335L203 334z"/>
<path style="fill:#c6d0e5; stroke:none;" d="M204 334L205 335L204 334z"/>
<path style="fill:#8b9fcb; stroke:none;" d="M229 334L230 335L229 334z"/>
<path style="fill:#c6d0e5; stroke:none;" d="M236 334L237 335L236 334z"/>
<path style="fill:#8b9fcb; stroke:none;" d="M243 334L244 335L243 334M269 334L270 335L269 334M277 334L278 335L277 334M284 334L285 335L284 334M306 334L307 335L306 334z"/>
<path style="fill:#c6d0e5; stroke:none;" d="M313 334L314 335L313 334z"/>
<path style="fill:#8b9fcb; stroke:none;" d="M320 334L321 335L320 334z"/>
<path style="fill:#c6d0e5; stroke:none;" d="M366 334L367 335L366 334M373 334L374 335L373 334z"/>
<path style="fill:#8b9fcb; stroke:none;" d="M374 334L375 335L374 334z"/>
<path style="fill:#c6d0e5; stroke:none;" d="M382 334L383 335L382 334M386 334L387 335L386 334M405 334L406 335L405 334z"/>
<path style="fill:#8b9fcb; stroke:none;" d="M413 334L414 335L413 334M418 334L419 335L418 334z"/>
<path style="fill:#c6d0e5; stroke:none;" d="M485 334L486 335L485 334M90 335L90 336L93 336L90 335M101 335L102 336L101 335z"/>
<path style="fill:#8b9fcb; stroke:none;" d="M112 335L113 336L112 335z"/>
<path style="fill:#c6d0e5; stroke:none;" d="M121 335L121 336L124 336L121 335M156 335L156 336L160 336L156 335M200.667 335.333L201.333 335.667L200.667 335.333z"/>
<path style="fill:#8b9fcb; stroke:none;" d="M222 335L223 336L222 335z"/>
<path style="fill:#c6d0e5; stroke:none;" d="M231 335L231 336L235 336L231 335M270 335L271 336L270 335M279 335L279 336L283 336L279 335z"/>
<path style="fill:#8b9fcb; stroke:none;" d="M290.333 335.667L290.667 336.333L290.333 335.667M299 335L300 336L299 335z"/>
<path style="fill:#c6d0e5; stroke:none;" d="M308 335L308 336L312 336L308 335M319 335L320 336L319 335M375 335L376 336L375 335z"/>
<path style="fill:#8b9fcb; stroke:none;" d="M376 335L376 336L380 336L376 335z"/>
<path style="fill:#c6d0e5; stroke:none;" d="M380 335L381 336L380 335z"/>
<path style="fill:#8b9fcb; stroke:none;" d="M398 335L399 336L398 335z"/>
<path style="fill:#c6d0e5; stroke:none;" d="M407 335L408 336L407 335z"/>
<path style="fill:#8b9fcb; stroke:none;" d="M408 335L408 336L411 336L408 335z"/>
<path style="fill:#c6d0e5; stroke:none;" d="M411 335L412 336L411 335M418.333 335.667L418.667 336.333L418.333 335.667z"/>
<path style="fill:#8b9fcb; stroke:none;" d="M15 336L16 337L15 336z"/>
<path style="fill:#c6d0e5; stroke:none;" d="M100 336L101 337L100 336M113 336L114 337L113 336z"/>
<path style="fill:#8b9fcb; stroke:none;" d="M167 336L168 337L167 336M192 336L193 337L192 336z"/>
<path style="fill:#c6d0e5; stroke:none;" d="M223 336L224 337L223 336M271 336L272 337L271 336M300 336L301 337L300 336z"/>
<path style="fill:#8b9fcb; stroke:none;" d="M367 336L368 337L367 336z"/>
<path style="fill:#c6d0e5; stroke:none;" d="M399 336L400 337L399 336z"/>
<path style="fill:#8b9fcb; stroke:none;" d="M484 336L485 337L484 336z"/>
<path style="fill:#c6d0e5; stroke:none;" d="M99 337L100 338L99 337M114 337L115 338L114 337z"/>
<path style="fill:#8b9fcb; stroke:none;" d="M166 337L167 338L166 337z"/>
<path style="fill:#c6d0e5; stroke:none;" d="M193 337L194 338L193 337M224 337L225 338L224 337M272 337L273 338L272 337M301 337L302 338L301 337z"/>
<path style="fill:#8b9fcb; stroke:none;" d="M368 337L369 338L368 337M386 337L387 338L386 337z"/>
<path style="fill:#c6d0e5; stroke:none;" d="M400 337L401 338L400 337z"/>
<path style="fill:#fdfdfe; stroke:none;" d="M484 337L485 338L484 337z"/>
<path style="fill:#8b9fcb; stroke:none;" d="M16 338L17 339L16 338z"/>
<path style="fill:#c6d0e5; stroke:none;" d="M98 338L99 339L98 338M115 338L116 339L115 338M164 338L165 339L164 338z"/>
<path style="fill:#8b9fcb; stroke:none;" d="M165 338L166 339L165 338M194 338L195 339L194 338M225 338L226 339L225 338z"/>
<path style="fill:#c6d0e5; stroke:none;" d="M239 338L240 339L239 338z"/>
<path style="fill:#8b9fcb; stroke:none;" d="M273 338L274 339L273 338z"/>
<path style="fill:#c6d0e5; stroke:none;" d="M288 338L289 339L288 338z"/>
<path style="fill:#8b9fcb; stroke:none;" d="M302 338L303 339L302 338M317 338L318 339L317 338M369 338L370 339L369 338z"/>
<path style="fill:#c6d0e5; stroke:none;" d="M370 338L371 339L370 338z"/>
<path style="fill:#8b9fcb; stroke:none;" d="M385 338L386 339L385 338M401 338L402 339L401 338z"/>
<path style="fill:#c6d0e5; stroke:none;" d="M416 338L417 339L416 338z"/>
<path style="fill:#8b9fcb; stroke:none;" d="M483 338L484 339L483 338z"/>
<path style="fill:#c6d0e5; stroke:none;" d="M16 339L17 340L16 339z"/>
<path style="fill:#8b9fcb; stroke:none;" d="M84 339L84 349L85 349L86 339L84 339z"/>
<path style="fill:#c6d0e5; stroke:none;" d="M96 339L97 340L96 339z"/>
<path style="fill:#8b9fcb; stroke:none;" d="M97 339L98 340L97 339M116 339L117 340L116 339z"/>
<path style="fill:#c6d0e5; stroke:none;" d="M117 339L118 340L117 339M127 339L128 340L127 339z"/>
<path style="fill:#8b9fcb; stroke:none;" d="M128 339L129 340L128 339z"/>
<path style="fill:#c6d0e5; stroke:none;" d="M134 339L135 340L134 339M152 339L153 340L152 339z"/>
<path style="fill:#8b9fcb; stroke:none;" d="M163 339L164 340L163 339z"/>
<path style="fill:#c6d0e5; stroke:none;" d="M178 339L179 340L178 339M196 339L197 340L196 339z"/>
<path style="fill:#8b9fcb; stroke:none;" d="M226 339L227 340L226 339z"/>
<path style="fill:#c6d0e5; stroke:none;" d="M227 339L228 340L227 339z"/>
<path style="fill:#8b9fcb; stroke:none;" d="M238 339L239 340L238 339z"/>
<path style="fill:#c6d0e5; stroke:none;" d="M275 339L276 340L275 339M286 339L287 340L286 339z"/>
<path style="fill:#8b9fcb; stroke:none;" d="M303 339L304 340L303 339z"/>
<path style="fill:#c6d0e5; stroke:none;" d="M304 339L305 340L304 339z"/>
<path style="fill:#8b9fcb; stroke:none;" d="M315 339L316 340L315 339z"/>
<path style="fill:#c6d0e5; stroke:none;" d="M332 339L333 340L332 339z"/>
<path style="fill:#8b9fcb; stroke:none;" d="M337 339L338 340L337 339z"/>
<path style="fill:#c6d0e5; stroke:none;" d="M351 339L352 340L351 339z"/>
<path style="fill:#8b9fcb; stroke:none;" d="M371 339L372 340L371 339M383 339L384 340L383 339z"/>
<path style="fill:#c6d0e5; stroke:none;" d="M403 339L404 340L403 339M414 339L415 340L414 339z"/>
<path style="fill:#8b9fcb; stroke:none;" d="M415 339L416 340L415 339z"/>
<path style="fill:#c6d0e5; stroke:none;" d="M483 339L484 340L483 339z"/>
<path style="fill:#8b9fcb; stroke:none;" d="M87.6667 340.333L88.3333 340.667L87.6667 340.333z"/>
<path style="fill:#c6d0e5; stroke:none;" d="M89 340L89 341L94 341L89 340z"/>
<path style="fill:#8b9fcb; stroke:none;" d="M94 340L95 341L94 340M119 340L120 341L119 340z"/>
<path style="fill:#c6d0e5; stroke:none;" d="M120 340L120 341L125 341L120 340z"/>
<path style="fill:#8b9fcb; stroke:none;" d="M125.667 340.333L126.333 340.667L125.667 340.333M130 340L131 341L130 340z"/>
<path style="fill:#c6d0e5; stroke:none;" d="M131.667 340.333L132.333 340.667L131.667 340.333z"/>
<path style="fill:#8b9fcb; stroke:none;" d="M133 340L134 341L133 340M154 340L155 341L154 340z"/>
<path style="fill:#c6d0e5; stroke:none;" d="M155 340L155 341L161 341L155 340z"/>
<path style="fill:#8b9fcb; stroke:none;" d="M161 340L162 341L161 340M179 340L180 341L179 340z"/>
<path style="fill:#c6d0e5; stroke:none;" d="M180.667 340.333L181.333 340.667L180.667 340.333z"/>
<path style="fill:#8b9fcb; stroke:none;" d="M182 340L183 341L182 340M197.667 340.333L198.333 340.667L197.667 340.333z"/>
<path style="fill:#c6d0e5; stroke:none;" d="M199 340L199 341L204 341L199 340z"/>
<path style="fill:#8b9fcb; stroke:none;" d="M204.667 340.333L205.333 340.667L204.667 340.333z"/>
<path style="fill:#c6d0e5; stroke:none;" d="M211 340L212 341L211 340z"/>
<path style="fill:#8b9fcb; stroke:none;" d="M228.667 340.333L229.333 340.667L228.667 340.333z"/>
<path style="fill:#c6d0e5; stroke:none;" d="M230 340L231 341L230 340M235 340L236 341L235 340z"/>
<path style="fill:#8b9fcb; stroke:none;" d="M236 340L237 341L236 340M277 340L278 341L277 340z"/>
<path style="fill:#c6d0e5; stroke:none;" d="M278 340L278 341L284 341L278 340z"/>
<path style="fill:#8b9fcb; stroke:none;" d="M284 340L285 341L284 340M305.667 340.333L306.333 340.667L305.667 340.333z"/>
<path style="fill:#c6d0e5; stroke:none;" d="M307 340L308 341L307 340M312 340L313 341L312 340z"/>
<path style="fill:#8b9fcb; stroke:none;" d="M313 340L314 341L313 340M333 340L334 341L333 340z"/>
<path style="fill:#c6d0e5; stroke:none;" d="M334.667 340.333L335.333 340.667L334.667 340.333z"/>
<path style="fill:#8b9fcb; stroke:none;" d="M336 340L337 341L336 340M352 340L353 341L352 340z"/>
<path style="fill:#c6d0e5; stroke:none;" d="M353.667 340.333L354.333 340.667L353.667 340.333z"/>
<path style="fill:#8b9fcb; stroke:none;" d="M355 340L356 341L355 340M373.667 340.333L374.333 340.667L373.667 340.333z"/>
<path style="fill:#c6d0e5; stroke:none;" d="M375 340L375 341L380 341L375 340z"/>
<path style="fill:#8b9fcb; stroke:none;" d="M380.667 340.333L381.333 340.667L380.667 340.333M405 340L406 341L405 340z"/>
<path style="fill:#c6d0e5; stroke:none;" d="M406 340L406 341L412 341L406 340z"/>
<path style="fill:#8b9fcb; stroke:none;" d="M412 340L413 341L412 340M17 341L18 342L17 341z"/>
<path style="fill:#c6d0e5; stroke:none;" d="M205 341L206 342L205 341z"/>
<path style="fill:#8b9fcb; stroke:none;" d="M211 341L212 342L211 341M482 341L483 342L482 341z"/>
<path style="fill:#c6d0e5; stroke:none;" d="M204 342L205 343L204 342M482 342L483 343L482 342z"/>
<path style="fill:#8b9fcb; stroke:none;" d="M18 343L19 344L18 343z"/>
<path style="fill:#c6d0e5; stroke:none;" d="M194.667 343.333L195.333 343.667L194.667 343.333z"/>
<path style="fill:#8b9fcb; stroke:none;" d="M196 343L197 344L196 343M202 343L203 344L202 343M210 343L211 344L210 343M481 343L482 344L481 343z"/>
<path style="fill:#c6d0e5; stroke:none;" d="M18 344L19 345L18 344M193 344L194 345L193 344M198 344L198 345L201 345L198 344M209 344L210 345L209 344M481 344L482 345L481 344z"/>
<path style="fill:#8b9fcb; stroke:none;" d="M192.333 345.667L192.667 346.333L192.333 345.667M19 346L20 347L19 346M480 346L481 347L480 346z"/>
<path style="fill:#c6d0e5; stroke:none;" d="M193 347L194 348L193 347M206 347L207 348L206 347M480 347L481 348L480 347z"/>
<path style="fill:#8b9fcb; stroke:none;" d="M20 348L21 349L20 348z"/>
<path style="fill:#c6d0e5; stroke:none;" d="M150 348L151 349L150 348z"/>
<path style="fill:#8b9fcb; stroke:none;" d="M194 348L195 349L194 348z"/>
<path style="fill:#c6d0e5; stroke:none;" d="M204 348L205 349L204 348z"/>
<path style="fill:#8b9fcb; stroke:none;" d="M205 348L206 349L205 348M479 348L480 349L479 348z"/>
<path style="fill:#c6d0e5; stroke:none;" d="M20 349L21 350L20 349M79 349L80 350L79 349M83 349L84 350L83 349z"/>
<path style="fill:#8b9fcb; stroke:none;" d="M145 349L146 350L145 349M150 349L151 350L150 349M196.667 349.333L197.333 349.667L196.667 349.333z"/>
<path style="fill:#c6d0e5; stroke:none;" d="M198 349L198 350L201 350L198 349z"/>
<path style="fill:#8b9fcb; stroke:none;" d="M201.667 349.333L202.333 349.667L201.667 349.333z"/>
<path style="fill:#c6d0e5; stroke:none;" d="M479 349L480 350L479 349z"/>
<path style="fill:#8b9fcb; stroke:none;" d="M21 350L22 351L21 350M80 350L81 351L80 350z"/>
<path style="fill:#c6d0e5; stroke:none;" d="M81 350L82 351L81 350z"/>
<path style="fill:#8b9fcb; stroke:none;" d="M82 350L83 351L82 350z"/>
<path style="fill:#c6d0e5; stroke:none;" d="M147 350L148 351L147 350z"/>
<path style="fill:#8b9fcb; stroke:none;" d="M148 350L149 351L148 350z"/>
<path style="fill:#c6d0e5; stroke:none;" d="M21 351L22 352L21 351z"/>
<path style="fill:#8b9fcb; stroke:none;" d="M478 351L479 352L478 351M22 353L23 354L22 353M477 353L478 354L477 353M23 355L24 356L23 355M476 355L477 356L476 355M24 357L25 358L24 357M475 357L476 358L475 357z"/>
<path style="fill:#fdfdfe; stroke:none;" d="M475 358L476 359L475 358z"/>
<path style="fill:#8b9fcb; stroke:none;" d="M25 359L26 360L25 359M474 359L475 360L474 359z"/>
<path style="fill:#fdfdfe; stroke:none;" d="M474 360L475 361L474 360z"/>
<path style="fill:#8b9fcb; stroke:none;" d="M26 361L27 362L26 361M473 361L474 362L473 361z"/>
<path style="fill:#c6d0e5; stroke:none;" d="M473 362L474 363L473 362z"/>
<path style="fill:#8b9fcb; stroke:none;" d="M27 363L28 364L27 363M472 363L473 364L472 363z"/>
<path style="fill:#fdfdfe; stroke:none;" d="M472 364L473 365L472 364z"/>
<path style="fill:#8b9fcb; stroke:none;" d="M28 365L29 366L28 365M471 365L472 366L471 365z"/>
<path style="fill:#fdfdfe; stroke:none;" d="M471 366L472 367L471 366z"/>
<path style="fill:#8b9fcb; stroke:none;" d="M29 367L30 368L29 367M470 367L471 368L470 367M30 369L31 370L30 369M469 369L470 370L469 369z"/>
<path style="fill:#c6d0e5; stroke:none;" d="M31 371L32 372L31 371z"/>
<path style="fill:#8b9fcb; stroke:none;" d="M468 371L469 372L468 371M32 372L33 373L32 372M467 372L468 373L467 372z"/>
<path style="fill:#c6d0e5; stroke:none;" d="M467 373L468 374L467 373z"/>
<path style="fill:#8b9fcb; stroke:none;" d="M33 374L34 375L33 374M466 374L467 375L466 374z"/>
<path style="fill:#fdfdfe; stroke:none;" d="M466 375L467 376L466 375z"/>
<path style="fill:#8b9fcb; stroke:none;" d="M34 376L35 377L34 376M465 376L466 377L465 376z"/>
<path style="fill:#c6d0e5; stroke:none;" d="M35 378L36 379L35 378M464 378L465 379L464 378z"/>
<path style="fill:#8b9fcb; stroke:none;" d="M36 379L37 380L36 379M463 379L464 380L463 379z"/>
<path style="fill:#fdfdfe; stroke:none;" d="M463 380L464 381L463 380z"/>
<path style="fill:#8b9fcb; stroke:none;" d="M37 381L38 382L37 381M462 381L463 382L462 381z"/>
<path style="fill:#c6d0e5; stroke:none;" d="M38 383L39 384L38 383M461 383L462 384L461 383z"/>
<path style="fill:#8b9fcb; stroke:none;" d="M39 384L40 385L39 384M460 384L461 385L460 384z"/>
<path style="fill:#c6d0e5; stroke:none;" d="M40 386L41 387L40 386M459 386L460 387L459 386z"/>
<path style="fill:#8b9fcb; stroke:none;" d="M41 387L42 388L41 387M458 387L459 388L458 387z"/>
<path style="fill:#c6d0e5; stroke:none;" d="M42 389L43 390L42 389M457 389L458 390L457 389z"/>
<path style="fill:#8b9fcb; stroke:none;" d="M43 390L44 391L43 390M456 390L457 391L456 390z"/>
<path style="fill:#c6d0e5; stroke:none;" d="M44 392L45 393L44 392M455 392L456 393L455 392z"/>
<path style="fill:#8b9fcb; stroke:none;" d="M45 393L46 394L45 393M454 393L455 394L454 393M46 394L47 395L46 394z"/>
<path style="fill:#fdfdfe; stroke:none;" d="M453 395L454 396L453 395z"/>
<path style="fill:#c6d0e5; stroke:none;" d="M47 396L48 397L47 396M452 396L453 397L452 396z"/>
<path style="fill:#8b9fcb; stroke:none;" d="M48 397L49 398L48 397M451 397L452 398L451 397z"/>
<path style="fill:#c6d0e5; stroke:none;" d="M49 399L50 400L49 399M450 399L451 400L450 399M50 400L51 401L50 400z"/>
<path style="fill:#8b9fcb; stroke:none;" d="M449 400L450 401L449 400M51 401L52 402L51 401M448 401L449 402L448 401z"/>
<path style="fill:#fdfdfe; stroke:none;" d="M448 402L449 403L448 402M52 403L53 404L52 403z"/>
<path style="fill:#c6d0e5; stroke:none;" d="M447 403L448 404L447 403M53 404L54 405L53 404M446 404L447 405L446 404z"/>
<path style="fill:#8b9fcb; stroke:none;" d="M54 405L55 406L54 405M445 405L446 406L445 405M55 406L56 407L55 406M444 406L445 407L444 406z"/>
<path style="fill:#c6d0e5; stroke:none;" d="M56 408L57 409L56 408M443 408L444 409L443 408M57 409L58 410L57 409M442 409L443 410L442 409z"/>
<path style="fill:#8b9fcb; stroke:none;" d="M58 410L59 411L58 410M441 410L442 411L441 410M59 411L60 412L59 411M440 411L441 412L440 411M60 412L61 413L60 412M439 412L440 413L439 412z"/>
<path style="fill:#fdfdfe; stroke:none;" d="M439 413L440 414L439 413M61 414L62 415L61 414M438 414L439 415L438 414M62 415L63 416L62 415z"/>
<path style="fill:#c6d0e5; stroke:none;" d="M437 415L438 416L437 415M63 416L64 417L63 416M436 416L437 417L436 416M64 417L65 418L64 417M435 417L436 418L435 417M65 418L66 419L65 418z"/>
<path style="fill:#8b9fcb; stroke:none;" d="M434 418L435 419L434 418M66 419L67 420L66 419M433 419L434 420L433 419M67 420L68 421L67 420M432 420L433 421L432 420M68 421L69 422L68 421M431 421L432 422L431 421M69 422L70 423L69 422M430 422L431 423L430 422M70 423L71 424L70 423z"/>
<path style="fill:#fdfdfe; stroke:none;" d="M430 423L431 424L430 423z"/>
<path style="fill:#8b9fcb; stroke:none;" d="M71 424L72 425L71 424M428 424L429 425L428 424M72 425L73 426L72 425M427 425L428 426L427 425M73 426L74 427L73 426M74 427L75 428L74 427M425 427L426 428L425 427M75 428L76 429L75 428M424 428L425 429L424 428M76 429L77 430L76 429M77 430L78 431L77 430M422 430L423 431L422 430z"/>
<path style="fill:#fdfdfe; stroke:none;" d="M423 430L424 431L423 430z"/>
<path style="fill:#8b9fcb; stroke:none;" d="M78 431L79 432L78 431M421 431L422 432L421 431M79 432L80 433L79 432M420 432L421 433L420 432M80 433L81 434L80 433M419 433L420 434L419 433M81 434L82 435L81 434M418 434L419 435L418 434z"/>
<path style="fill:#c6d0e5; stroke:none;" d="M82 435L83 436L82 435M417 435L418 436L417 435M83 436L84 437L83 436M416 436L417 437L416 436M84 437L85 438L84 437M415 437L416 438L415 437z"/>
<path style="fill:#fdfdfe; stroke:none;" d="M414 438L415 439L414 438z"/>
<path style="fill:#8b9fcb; stroke:none;" d="M87 439L88 440L87 439M412 439L413 440L412 439z"/>
<path style="fill:#fdfdfe; stroke:none;" d="M413 439L414 440L413 439z"/>
<path style="fill:#8b9fcb; stroke:none;" d="M88 440L89 441L88 440M411 440L412 441L411 440M89 441L90 442L89 441M410 441L411 442L410 441z"/>
<path style="fill:#c6d0e5; stroke:none;" d="M90 442L91 443L90 442M409 442L410 443L409 442M91 443L92 444L91 443M408 443L409 444L408 443z"/>
<path style="fill:#8b9fcb; stroke:none;" d="M93 444L94 445L93 444M406 444L407 445L406 444z"/>
<path style="fill:#fdfdfe; stroke:none;" d="M407 444L408 445L407 444z"/>
<path style="fill:#8b9fcb; stroke:none;" d="M94 445L95 446L94 445M405 445L406 446L405 445z"/>
<path style="fill:#c6d0e5; stroke:none;" d="M95 446L96 447L95 446M404 446L405 447L404 446z"/>
<path style="fill:#fdfdfe; stroke:none;" d="M96 447L97 448L96 447z"/>
<path style="fill:#c6d0e5; stroke:none;" d="M403 447L404 448L403 447z"/>
<path style="fill:#8b9fcb; stroke:none;" d="M98 448L99 449L98 448M401 448L402 449L401 448z"/>
<path style="fill:#fdfdfe; stroke:none;" d="M402 448L403 449L402 448z"/>
<path style="fill:#8b9fcb; stroke:none;" d="M99 449L100 450L99 449M400 449L401 450L400 449z"/>
<path style="fill:#c6d0e5; stroke:none;" d="M100 450L101 451L100 450M399 450L400 451L399 450z"/>
<path style="fill:#8b9fcb; stroke:none;" d="M102 451L103 452L102 451M397 451L398 452L397 451z"/>
<path style="fill:#c6d0e5; stroke:none;" d="M103 452L104 453L103 452M396 452L397 453L396 452z"/>
<path style="fill:#8b9fcb; stroke:none;" d="M105 453L106 454L105 453z"/>
<path style="fill:#fdfdfe; stroke:none;" d="M395 453L396 454L395 453z"/>
<path style="fill:#8b9fcb; stroke:none;" d="M106 454L107 455L106 454M393 454L394 455L393 454z"/>
<path style="fill:#c6d0e5; stroke:none;" d="M107 455L108 456L107 455M392 455L393 456L392 455z"/>
<path style="fill:#8b9fcb; stroke:none;" d="M109 456L110 457L109 456M390 456L391 457L390 456z"/>
<path style="fill:#c6d0e5; stroke:none;" d="M110 457L111 458L110 457M389 457L390 458L389 457z"/>
<path style="fill:#8b9fcb; stroke:none;" d="M112 458L113 459L112 458M387 458L388 459L387 458z"/>
<path style="fill:#c6d0e5; stroke:none;" d="M113 459L114 460L113 459M386 459L387 460L386 459z"/>
<path style="fill:#8b9fcb; stroke:none;" d="M115 460L116 461L115 460M384 460L385 461L384 460z"/>
<path style="fill:#c6d0e5; stroke:none;" d="M116 461L117 462L116 461M383 461L384 462L383 461z"/>
<path style="fill:#8b9fcb; stroke:none;" d="M118 462L119 463L118 462M381 462L382 463L381 462M120 463L121 464L120 463M379 463L380 464L379 463z"/>
<path style="fill:#fdfdfe; stroke:none;" d="M380 463L381 464L380 463z"/>
<path style="fill:#c6d0e5; stroke:none;" d="M121 464L122 465L121 464M378 464L379 465L378 464z"/>
<path style="fill:#8b9fcb; stroke:none;" d="M123 465L124 466L123 465M376 465L377 466L376 465z"/>
<path style="fill:#fdfdfe; stroke:none;" d="M124 466L125 467L124 466z"/>
<path style="fill:#8b9fcb; stroke:none;" d="M125 466L126 467L125 466M374 466L375 467L374 466z"/>
<path style="fill:#fdfdfe; stroke:none;" d="M375 466L376 467L375 466M126 467L127 468L126 467z"/>
<path style="fill:#8b9fcb; stroke:none;" d="M127 467L128 468L127 467M372 467L373 468L372 467z"/>
<path style="fill:#c6d0e5; stroke:none;" d="M373 467L374 468L373 467M128 468L129 469L128 468M371 468L372 469L371 468z"/>
<path style="fill:#8b9fcb; stroke:none;" d="M130 469L131 470L130 469M369 469L370 470L369 469M132 470L133 471L132 470M367 470L368 471L367 470z"/>
<path style="fill:#fdfdfe; stroke:none;" d="M368 470L369 471L368 470M133 471L134 472L133 471z"/>
<path style="fill:#8b9fcb; stroke:none;" d="M134 471L135 472L134 471M365 471L366 472L365 471z"/>
<path style="fill:#fdfdfe; stroke:none;" d="M366 471L367 472L366 471z"/>
<path style="fill:#8b9fcb; stroke:none;" d="M136 472L137 473L136 472M363 472L364 473L363 472z"/>
<path style="fill:#fdfdfe; stroke:none;" d="M364 472L365 473L364 472z"/>
<path style="fill:#c6d0e5; stroke:none;" d="M137 473L138 474L137 473z"/>
<path style="fill:#8b9fcb; stroke:none;" d="M138 473L139 474L138 473M361 473L362 474L361 473z"/>
<path style="fill:#c6d0e5; stroke:none;" d="M362 473L363 474L362 473z"/>
<path style="fill:#fdfdfe; stroke:none;" d="M139 474L140 475L139 474z"/>
<path style="fill:#8b9fcb; stroke:none;" d="M140 474L141 475L140 474M359 474L360 475L359 474z"/>
<path style="fill:#fdfdfe; stroke:none;" d="M360 474L361 475L360 474M141 475L142 476L141 475z"/>
<path style="fill:#8b9fcb; stroke:none;" d="M142 475L143 476L142 475M357 475L358 476L357 475z"/>
<path style="fill:#fdfdfe; stroke:none;" d="M358 475L359 476L358 475z"/>
<path style="fill:#8b9fcb; stroke:none;" d="M144 476L145 477L144 476M355 476L356 477L355 476M146 477L147 478L146 477M353 477L354 478L353 477z"/>
<path style="fill:#fdfdfe; stroke:none;" d="M354 477L355 478L354 477z"/>
<path style="fill:#c6d0e5; stroke:none;" d="M148 478L149 479L148 478z"/>
<path style="fill:#8b9fcb; stroke:none;" d="M149 478L150 479L149 478M351 478L352 479L351 478z"/>
<path style="fill:#c6d0e5; stroke:none;" d="M150 479L151 480L150 479z"/>
<path style="fill:#8b9fcb; stroke:none;" d="M151 479L152 480L151 479M348 479L349 480L348 479z"/>
<path style="fill:#c6d0e5; stroke:none;" d="M349 479L350 480L349 479z"/>
<path style="fill:#fdfdfe; stroke:none;" d="M152 480L153 481L152 480z"/>
<path style="fill:#8b9fcb; stroke:none;" d="M153 480L154 481L153 480M346 480L347 481L346 480z"/>
<path style="fill:#c6d0e5; stroke:none;" d="M347 480L348 481L347 480M155 481L156 482L155 481z"/>
<path style="fill:#8b9fcb; stroke:none;" d="M156 481L157 482L156 481M343 481L344 482L343 481z"/>
<path style="fill:#c6d0e5; stroke:none;" d="M344 481L345 482L344 481M157 482L158 483L157 482z"/>
<path style="fill:#8b9fcb; stroke:none;" d="M158 482L159 483L158 482M341 482L342 483L341 482z"/>
<path style="fill:#c6d0e5; stroke:none;" d="M342 482L343 483L342 482M160 483L161 484L160 483z"/>
<path style="fill:#8b9fcb; stroke:none;" d="M161 483L162 484L161 483M338 483L339 484L338 483z"/>
<path style="fill:#c6d0e5; stroke:none;" d="M339 483L340 484L339 483z"/>
<path style="fill:#fdfdfe; stroke:none;" d="M162 484L163 485L162 484z"/>
<path style="fill:#8b9fcb; stroke:none;" d="M163 484L164 485L163 484M336 484L337 485L336 484z"/>
<path style="fill:#fdfdfe; stroke:none;" d="M337 484L338 485L337 484z"/>
<path style="fill:#c6d0e5; stroke:none;" d="M165 485L166 486L165 485z"/>
<path style="fill:#8b9fcb; stroke:none;" d="M166 485L167 486L166 485M333 485L334 486L333 485z"/>
<path style="fill:#c6d0e5; stroke:none;" d="M334 485L335 486L334 485M168 486L169 487L168 486z"/>
<path style="fill:#8b9fcb; stroke:none;" d="M169 486L170 487L169 486M330 486L331 487L330 486z"/>
<path style="fill:#c6d0e5; stroke:none;" d="M331 486L332 487L331 486M171 487L172 488L171 487z"/>
<path style="fill:#8b9fcb; stroke:none;" d="M172 487L173 488L172 487M327 487L328 488L327 487z"/>
<path style="fill:#c6d0e5; stroke:none;" d="M328 487L329 488L328 487M174 488L175 489L174 488z"/>
<path style="fill:#8b9fcb; stroke:none;" d="M175 488L176 489L175 488M324 488L325 489L324 488z"/>
<path style="fill:#c6d0e5; stroke:none;" d="M325 488L326 489L325 488M177 489L178 490L177 489z"/>
<path style="fill:#8b9fcb; stroke:none;" d="M178.667 489.333L179.333 489.667L178.667 489.333M320.667 489.333L321.333 489.667L320.667 489.333z"/>
<path style="fill:#c6d0e5; stroke:none;" d="M322 489L323 490L322 489M181 490L182 491L181 490z"/>
<path style="fill:#8b9fcb; stroke:none;" d="M182 490L183 491L182 490M317 490L318 491L317 490z"/>
<path style="fill:#c6d0e5; stroke:none;" d="M318 490L319 491L318 490M184.667 491.333L185.333 491.667L184.667 491.333z"/>
<path style="fill:#8b9fcb; stroke:none;" d="M186 491L187 492L186 491M313 491L314 492L313 491z"/>
<path style="fill:#c6d0e5; stroke:none;" d="M314.667 491.333L315.333 491.667L314.667 491.333z"/>
<path style="fill:#fdfdfe; stroke:none;" d="M188 492L189 493L188 492z"/>
<path style="fill:#c6d0e5; stroke:none;" d="M189 492L190 493L189 492z"/>
<path style="fill:#8b9fcb; stroke:none;" d="M190 492L191 493L190 492M309 492L310 493L309 492z"/>
<path style="fill:#c6d0e5; stroke:none;" d="M310 492L311 493L310 492z"/>
<path style="fill:#fdfdfe; stroke:none;" d="M311 492L312 493L311 492z"/>
<path style="fill:#c6d0e5; stroke:none;" d="M192 493L193 494L192 493z"/>
<path style="fill:#8b9fcb; stroke:none;" d="M193.667 493.333L194.333 493.667L193.667 493.333M305.667 493.333L306.333 493.667L305.667 493.333z"/>
<path style="fill:#c6d0e5; stroke:none;" d="M307 493L308 494L307 493M196.667 494.333L197.333 494.667L196.667 494.333z"/>
<path style="fill:#8b9fcb; stroke:none;" d="M198.667 494.333L199.333 494.667L198.667 494.333M300.667 494.333L301.333 494.667L300.667 494.333z"/>
<path style="fill:#c6d0e5; stroke:none;" d="M302.667 494.333L303.333 494.667L302.667 494.333z"/>
<path style="fill:#fdfdfe; stroke:none;" d="M201 495L202 496L201 495z"/>
<path style="fill:#c6d0e5; stroke:none;" d="M202 495L203 496L202 495z"/>
<path style="fill:#8b9fcb; stroke:none;" d="M203.667 495.333L204.333 495.667L203.667 495.333M295.667 495.333L296.333 495.667L295.667 495.333z"/>
<path style="fill:#c6d0e5; stroke:none;" d="M297 495L298 496L297 495z"/>
<path style="fill:#fdfdfe; stroke:none;" d="M298 495L299 496L298 495M206 496L207 497L206 496z"/>
<path style="fill:#c6d0e5; stroke:none;" d="M207.667 496.333L208.333 496.667L207.667 496.333z"/>
<path style="fill:#8b9fcb; stroke:none;" d="M209.667 496.333L210.333 496.667L209.667 496.333M289.667 496.333L290.333 496.667L289.667 496.333z"/>
<path style="fill:#c6d0e5; stroke:none;" d="M291.667 496.333L292.333 496.667L291.667 496.333z"/>
<path style="fill:#fdfdfe; stroke:none;" d="M293 496L294 497L293 496M213 497L214 498L213 497z"/>
<path style="fill:#c6d0e5; stroke:none;" d="M214 497L215 498L214 497z"/>
<path style="fill:#8b9fcb; stroke:none;" d="M215 497L215 498L218 498L215 497M282 497L282 498L285 498L282 497z"/>
<path style="fill:#c6d0e5; stroke:none;" d="M285 497L286 498L285 497z"/>
<path style="fill:#fdfdfe; stroke:none;" d="M286 497L287 498L286 497M220 498L221 499L220 498z"/>
<path style="fill:#c6d0e5; stroke:none;" d="M221 498L221 499L224 499L221 498z"/>
<path style="fill:#8b9fcb; stroke:none;" d="M224 498L224 499L228 499L224 498M272 498L272 499L277 499L272 498z"/>
<path style="fill:#c6d0e5; stroke:none;" d="M277.667 498.333L278.333 498.667L277.667 498.333z"/>
<path style="fill:#fdfdfe; stroke:none;" d="M279 498L280 499L279 498z"/>
<path style="fill:#c6d0e5; stroke:none;" d="M232 499L232 500L237 500L232 499z"/>
<path style="fill:#8b9fcb; stroke:none;" d="M237 499L237 500L246 500L237 499M254 499L254 500L263 500L254 499z"/>
<path style="fill:#c6d0e5; stroke:none;" d="M263 499L263 500L268 500L263 499z"/>
</svg>
